<svg xmlns="http://www.w3.org/2000/svg" width="38.036" height="33.536"><g data-name="Group 272" fill="none"><g data-name="Path 46"><path d="M16 1.536h1a16 16 0 0 1 0 32h-1a16 16 0 0 1 0-32z"/><path d="M16 7.536c-5.514 0-10 4.486-10 10s4.486 10 11 10c5.514 0 10-4.486 10-10s-4.486-10-10-10h-1m0-6h1c8.837 0 16 7.163 16 16s-7.163 16-16 16h-1c-8.837 0-16-7.163-16-16s7.163-16 16-16z" fill="#eee9f1"/></g><path data-name="Icon feather-check" d="M34.5 3.536 16.625 21.411 8.5 13.286" stroke="#ab79f7" stroke-linecap="round" stroke-linejoin="round" stroke-width="5"/></g></svg>