<svg version="1.1" id="Layer_1" xmlns="http://www.w3.org/2000/svg" xmlns:xlink="http://www.w3.org/1999/xlink" x="0px" y="0px" viewBox="0 0 253 399" style="enable-background:new 0 0 253 399;" xml:space="preserve">
<style type="text/css">
	.st0{fill:#F4F2F7;}
</style>
<path class="st0" d="M3.9,399c-1.4-6.5-2.4-13.4-2.9-20.4l10-0.7c0.5,6.6,1.4,13,2.7,19.1C13.7,396.9,3.9,399,3.9,399z"/>
<path class="st0" d="M10,356.7l-10-0.3c0.2-6.5,0.7-13.3,1.5-20.4l9.9,1.1C10.7,344,10.2,350.6,10,356.7L10,356.7z"/>
<path class="st0" d="M15.3,316l-9.8-2l0.4-2c1.3-6,3-12,5.1-17.9l9.4,3.4c-2,5.5-3.6,11.1-4.7,16.6L15.3,316L15.3,316z"/>
<path class="st0" d="M29.2,278.1l-8.8-4.8c3.1-5.8,6.8-11.7,10.8-17.5l8.2,5.7C35.6,267.1,32.1,272.7,29.2,278.1L29.2,278.1z"/>
<path class="st0" d="M207.7,104.5l-7.1-7.1c5.3-5.3,9.4-10.1,12.4-14.5l8.2,5.7C217.9,93.6,213.5,98.8,207.7,104.5z"/>
<path class="st0" d="M227.9,66.3l-9.9-1.7c0.1-0.9,0.3-1.8,0.4-2.7c0.5-4.8,0.2-9.8-1-15.3l9.8-2.1c1.4,6.4,1.8,12.6,1.2,18.4  C228.2,64,228.1,65.1,227.9,66.3L227.9,66.3z"/>
<path class="st0" d="M210.3,27.2c-3.1-5.9-6.5-11.3-9.9-16.9l8.5-5.3c3.5,5.5,7.1,11.4,10.3,17.6L210.3,27.2z"/>
</svg>