<svg viewBox="0 0 682 221.7" xmlns="http://www.w3.org/2000/svg">
  <g id="Layer_1" transform="matrix(1, 0, 0, 1, -3.077245, -0.69595)">
    <polygon style="fill:#131214;" points="254.9,156.4 311.6,75.6 257.2,75.6 257.2,52.4 345.8,52.4 345.8,72.4 288.6,153.2 &#xA;&#9;&#9;345.8,153.2 345.8,176.4 254.9,176.4 &#9;"/>
    <path style="fill:#131214;" d="M425.9,92.4v9.4c-5.8-8.1-16.6-11.2-24.5-11.2c-11.4,0-21.3,4.1-29.9,12.2c-8.7,8.1-13,18.5-13,31.5 s4.4,23.6,13,31.7c8.7,8.1,18.6,12.1,29.9,12.1c3.9,0,8.4-0.9,13.3-2.9c5.1-2,8.9-4.7,11.2-8.3v9.5v0.1h24.8V92.4H425.9z M405.6,154.3c-5.6,0-10.5-1.8-14.8-5.6c-4.1-3.8-6.3-8.6-6.3-14.4c0-5.7,2.2-10.4,6.3-14.2c4.4-3.8,9.2-5.8,14.8-5.8 c10.8,0,20.3,7.9,20.3,20C425.9,146.3,416.4,154.2,405.6,154.3z"/>
    <path style="fill:#131214;" d="M498.8,176.4h-25V92.3h25v20.3c4.1-14.6,14.2-22.1,23.8-22.1c5.6,0,10.3,1.1,14.4,3.1l-4.5,22.5 c-3.4-1.6-7.7-2.5-12.8-2.5c-13.9,0-20.9,11.2-20.9,33.5V176.4L498.8,176.4z"/>
    <rect x="550" y="46.6" style="fill:#131214;" width="25" height="129.8"/>
    <path style="fill:#131214;" d="M660.3,92.4v9.4c-5.8-8.1-16.6-11.2-24.5-11.2c-11.4,0-21.2,4.1-29.9,12.2c-8.7,8.1-13,18.5-13,31.5 s4.4,23.6,13,31.7c8.7,8.1,18.6,12.1,29.9,12.1c3.9,0,8.4-0.9,13.3-2.9c5.1-2,8.9-4.7,11.2-8.3v9.5v0.1h24.8V92.4H660.3z M640,154.3c-5.6,0-10.5-1.8-14.8-5.6c-4.1-3.8-6.3-8.6-6.3-14.4c0-5.7,2.2-10.4,6.3-14.2c4.4-3.8,9.2-5.8,14.8-5.8 c10.8,0,20.3,7.9,20.3,20C660.3,146.3,650.8,154.2,640,154.3z"/>
    <g>
      <path style="fill:#131214;" d="M55.2,190.1c0.3,2.1,1.1,4.2,2.4,6.1c0.9,1.4,2.1,2.5,3.5,3.4c1.5,0.9,3.2,1.6,5.1,1.8 c0.5,0.1,0.9,0,1.4,0s0.9-0.1,1.4-0.1c0.9-0.1,1.9-0.4,2.7-0.8c1.7-0.8,3.1-1.8,4.2-3.1c1.6-1.8,2.6-3.8,3.1-5.9 c0.1-0.6-0.7-1-1.1-0.5c-1.3,1.7-2.7,3.2-4.3,4.4c-1.1,0.8-2.2,1.5-3.4,1.8c-0.6,0.2-1.1,0.3-1.8,0.4c-0.3,0-0.6,0.1-0.9,0.1h-0.9 c-2.4-0.2-4.7-1.5-6.6-3.3c-1.4-1.4-2.7-3-3.9-4.7C56,189.1,55.1,189.4,55.2,190.1z"/>
      <path style="fill:#131214;" d="M180.2,108.5c0,0,0.2,0.1,0.4,0.1C180.4,108.5,180.2,108.5,180.2,108.5z"/>
      <path style="fill:#131214;" d="M181,108.7C181,108.7,181,108.7,181,108.7L181,108.7z"/>
      <path style="fill:#131214;" d="M154.2,109.5c-4.9,1.5-9.6,3.4-14.1,5.9c-8.7,4.9-16.6,11.5-22.4,19.6 c-6.4,8.8-10.4,18.9-11.9,29.7c-1.4,10.3-0.4,21.1,5.8,29.7c-5.7-11.2-4.6-24.2-1-35.9c3-9.7,7.8-18.6,14.8-26 c5.2-5.6,11.1-10.4,17.7-14.2c5.3-3.1,11-5.5,16.9-7.2c6-1.8,12.3-2.9,18.6-2c1.9,0.3,3.8,0.8,5.6,1.5c-1.1-0.9-2.4-1.5-3.7-2 C172.2,105.6,162.5,106.9,154.2,109.5z"/>
      <path style="fill:#131214;" d="M180.2,108.5C180.2,108.5,180.2,108.5,180.2,108.5L180.2,108.5z"/>
      <path style="fill:#131214;" d="M180.6,108.6c0.2,0.1,0.4,0.1,0.4,0.1C180.9,108.7,180.8,108.7,180.6,108.6z"/>
      <path style="fill:#131214;" d="M176.9,125.9c-0.5,1.8,0.5,3.7,2.2,4.3s3.5-0.4,3.9-2.2c0.5-1.8-0.5-3.7-2.2-4.3 C179.1,123,177.4,124.1,176.9,125.9z"/>
      <path style="fill:#131214;" d="M102.4,94.2c-0.8,0-1.5-0.3-1.9-0.9c0,0.3-0.1,0.5-0.1,0.8c0.1,2.9,2.4,5.2,5.2,5.1s5-2.6,4.9-5.6 c-0.1-2.9-2.4-5.2-5.2-5.1c-1.3,0.1-2.5,0.7-3.3,1.6h0.2c1.2-0.1,2.2,0.8,2.2,2C104.5,93.1,103.6,94.1,102.4,94.2z"/>
      <path style="fill:#131214;" d="M125.2,94.1c0.2-0.3,0.3-0.7,0.4-1.1C125.5,93.3,125.3,93.7,125.2,94.1z"/>
      <path style="fill:#131214;" d="M99.7,66.1c0.4,0,0.8-0.2,1.2-0.5c3-2.9,8.6-2.7,10.4-1.4c0.9,0.6,2,0.2,2.5-0.9 c0.5-1.1,0.2-2.5-0.7-3.1c-3.4-2.3-10.6-2-14.5,1.9c-0.8,0.8-0.9,2.2-0.3,3.2C98.6,65.8,99.1,66.1,99.7,66.1z"/>
      <path style="fill:#131214;" d="M93.3,79.5c-0.2,0.2-0.3,0.5-0.5,0.8l-0.4,0.8c-0.1,0.3-0.2,0.6-0.4,0.8c-0.1,0.3-0.2,0.6-0.3,0.8 c-0.4,1.1-0.6,2.3-0.8,3.5l-0.1,0.9v2.6c0,0.6,0.1,1.1,0.1,1.7l0.3,1.7l0.2,0.9c0.1,0.3,0.2,0.6,0.2,0.9c0.2,0.6,0.4,1.1,0.6,1.7 c0.5,1.1,1.1,2.2,1.9,3.1c1.6,1.9,3.7,3.2,5.8,4c2.2,0.8,4.4,1.2,6.7,1.2c2.2,0,4.5-0.3,6.6-0.8c0.5-0.1,1.1-0.3,1.6-0.5l1.5-0.6 c1-0.4,2-0.9,2.9-1.5c1-0.5,1.8-1.2,2.7-1.9l0.6-0.6c0.2-0.2,0.4-0.4,0.5-0.6c0.3-0.4,0.6-0.9,0.9-1.4c0.5-0.9,1-1.9,1.3-2.9 c-0.4,1-0.9,2-1.4,2.9c-1.1,1.9-2.9,3.2-4.8,4.1c-3.8,1.9-8.2,2.5-12.3,2c-2.1-0.3-4-0.8-5.9-1.7c-1.8-0.8-3.4-2.1-4.5-3.6 c-0.5-0.8-1-1.6-1.3-2.5c-0.3-0.9-0.6-1.8-0.7-2.8c-0.1-0.5-0.1-1-0.2-1.5c0-0.5-0.1-1-0.1-1.5v-2.2l0.1-0.7 c0.2-1.9,0.8-3.8,1.8-5.4s2.3-3.1,3.9-4.2c3.2-2.2,7.5-3.2,11.6-3.3c1,0,2.1,0.1,3.1,0.3c1,0.2,2,0.5,2.9,1c1.9,0.9,3.5,2.3,4.8,4 c1.3,1.7,2.3,3.6,2.9,5.7c0.5,1.6,0.8,3.2,0.9,4.8c0-0.6-0.1-1.1-0.1-1.7c-0.1-1.1-0.4-2.1-0.7-3.2c-0.6-2.1-1.5-4.1-2.7-5.9 c-1.2-1.8-2.8-3.4-4.7-4.6c-1-0.6-2-1.1-3.1-1.4c-1.1-0.4-2.2-0.6-3.3-0.7c-0.6-0.1-1.1-0.1-1.7-0.1h-2.5l-0.8,0.1 c-0.6,0.1-1.1,0.1-1.7,0.2l-1.7,0.4c-0.6,0.1-1.1,0.3-1.7,0.5c-0.6,0.1-1.1,0.4-1.6,0.6c-0.3,0.1-0.5,0.2-0.8,0.4l-0.5,0.5 C96.4,75.7,94.6,77.4,93.3,79.5z"/>
      <path style="fill:#131214;" d="M152.4,132.7c-0.5,1.8,0.5,3.7,2.2,4.3s3.5-0.4,3.9-2.2c0.5-1.8-0.5-3.7-2.2-4.3 C154.6,129.9,152.9,130.9,152.4,132.7z"/>
      <path style="fill:#131214;" d="M152.3,73.2c0-0.1-0.1-0.1-0.1-0.1L152.3,73.2z"/>
      <path style="fill:#131214;" d="M138.9,87.5c-0.6,0-1.2-0.3-1.5-0.7v0.7c0.1,2.4,2,4.2,4.2,4.1c2.3-0.1,4-2.1,3.9-4.5 s-2-4.2-4.2-4.1c-1.1,0-2,0.5-2.7,1.3h0.2c1,0,1.8,0.7,1.8,1.6C140.6,86.6,139.9,87.4,138.9,87.5z"/>
      <path style="fill:#131214;" d="M152.4,73.2c0.1,0.1,0.2,0.2,0.3,0.2C152.6,73.3,152.5,73.2,152.4,73.2z"/>
      <path style="fill:#131214;" d="M145.5,96l-2.5,0.3C143.7,96.3,144.6,96.2,145.5,96z"/>
      <path style="fill:#131214;" d="M154.4,91.9c-0.1,0.1-0.3,0.2-0.4,0.3C154.3,92,154.4,91.9,154.4,91.9z"/>
      <path style="fill:#131214;" d="M158.1,87.3c0.1-0.2,0.1-0.3,0.1-0.3C158.2,87.1,158.1,87.2,158.1,87.3z"/>
      <path style="fill:#131214;" d="M209.9,125.9c-7.8-14.9-18.9-20-30.7-25.4c-5.5-2.5-16.3-9-20.1-11.4c0,0-0.2,0.8-1.4,2.6 c0.1-0.2,0.2-0.3,0.4-0.5c-0.4,0.7-1,1.6-1.5,2.2c0,0,0,0,0,0c0,0.1-0.1,0.1-0.1,0.2c-0.1,0.1-0.3,0.2-0.4,0.3c0,0,0,0,0.1,0.1 c-0.2,0.2-0.4,0.4-0.6,0.6c7.2,5.4,14.2,8.6,21.1,11.7c11.2,5.1,20.9,9.6,27.7,22.6c12.5,23.7,4.1,51.7-19.9,66.7 c-3.1,2-19.8,11.7-39.4,11.7c-13.8,0-25.9-4.9-36-14.5c-12.3-15-29.4-46.7-29.2-70.4h0.1c0.8,0.4,1.6,1,2.4,1.8 c0.3,0.3,0.7,0.5,1.1,0.5c0.4,0,0.9-0.2,1.2-0.6c0.3-0.3,0.4-0.8,0.3-1.2c-0.3-1.5-1.1-2.9-2.3-4.1c-1.1-0.9-2.3-1.5-3.7-1.8 c-0.3-0.1-0.7-0.1-1.1-0.1h-0.9c-0.5,0-1,0.2-1.4,0.3c-0.2,0-0.3,0.1-0.5,0.1h-0.1c-2.1,0.7-3.8,2.1-5.2,4.2 c-0.9,1.3-1.5,2.8-1.8,4.4c-0.1,0.4,0,0.9,0.3,1.2c0.4,0.5,1.1,0.6,1.6,0.3c-12.9,13.8-16.2,41.3-11.6,55.6c2,6.3,5.5,9.8,9.8,9.8 c1,0,2.1-0.2,3.2-0.6c2.7-0.9,5.1-5,8-9.6c2.7-4.4,5.8-9.4,9-11.2c5.6,10.8,12.2,20.9,18.2,27.7c0.2,0.3,0.5,0.5,0.8,0.6 c1.5,1.5,3.8,2.9,5.2,3.7c-0.5,0.3-0.6,1.1-0.6,1.5c-0.1,5.7-4.1,6.9-7.1,7.8c-0.4,0.1-0.7,0.2-1,0.3c-6.2,2-14.2,3.1-23.1,3.1 c-6.4,0-12.9-0.5-19.4-1.6c-16.1-2.7-29.7-8.1-37.2-14.9c-4.4-4-6.3-8.4-6.3-14.7c0-1.6,2-10.4,2.6-12.3c1.5-5,3.5-11,6-17.9 c1.8,3.3,4.9,7.1,6.6,8.3c0.2,0.1,0.4,0.2,0.7,0.2c0.4,0,0.9-0.2,1.1-0.6c0.3-0.3,0.3-0.8,0.1-1.2c-1.8-3.7-4.9-11-5.4-14.9 l3.4-8.7c1.6,4,5,8.4,7.8,10.5c0.2,0.2,0.5,0.3,0.8,0.3c0.4,0,0.9-0.2,1.1-0.6c0.2-0.4,0.2-0.9,0-1.3c-2.5-4.8-5.9-11.8-5.8-18.2 l2.9-6.4c1.6,4.6,4.7,9.2,7.1,12c0.2,0.3,0.6,0.5,1,0.5s0.8-0.2,1.1-0.6c0.3-0.3,0.3-0.8,0.2-1.2c-1.8-5.5-4.1-14.2-4.6-20.9 l1.5-3c0-0.1,0.1-0.2,0.1-0.2c0.6-1.4,1.3-2.7,2-4c1.6,4.5,4.5,9,6.8,11.7c0.3,0.3,0.7,0.5,1.1,0.5c0.5,0,0.9-0.2,1.2-0.6 c0.3-0.4,0.3-0.8,0.2-1.3c-1.8-5.5-3.8-13.6-4.4-19.8l3.2-5.7L56,89.4c0.1,0,0.1-0.1,0.1-0.1l0.1-0.1c0.3-0.5,0.6-1.1,1-1.7 c1.8,4.4,5.2,9.1,7.3,11.4c0.3,0.3,0.7,0.5,1.1,0.5c0.5,0,1-0.3,1.3-0.7c0.3-0.4,0.4-0.9,0.2-1.4c-1.8-5.2-4-12.8-4.8-18.2 c1.1-1.8,2.2-3.5,3.4-5.2c0.5-0.9,1.1-1.7,1.6-2.4c1.7,4.2,5,8.5,6.8,10.5c0.3,0.3,0.7,0.5,1.1,0.5c0.5,0,0.9-0.2,1.2-0.6 c0.2-0.4,0.3-0.8,0.2-1.3c-0.9-3-2.9-10.6-3.7-16.6l0.3-0.3l0.2-0.2c3.3-4.8,8.1-8.7,14-11.3h0.1h0.1c4.2-2.2,9.2-3.3,14.8-3.4 c6.7,2.7,13.4,8.8,16.4,15c0.3,0.5,0.8,0.8,1.3,0.8c0.4,0,0.8-0.1,1.1-0.4c0.3-0.3,0.4-0.7,0.4-1.1c-0.1-3.4-0.4-7.1-1.4-10.1 c4.2,2.5,7.4,6,9.7,10.5c1.8,3.4,3.1,5.8,4.7,8.3c-2.4,1.9-6.9,6.7-4.9,15.1c0,0,1.4,9.1,12.4,9.2c0,0,6.9,0.4,13.1-4.3 c0,0,2-1,2.9-4.5c-0.2,0.8-1.1,3.2-3.1,4.3c0,0-2.3,1.6-5.5,2.4c0,0-6.6,1.8-11.8-1c0,0-5.2-2-5.2-8.8c0,0-1-6.6,4.5-10.6 c0,0,8.1-5.6,15.7-0.6c0,0,5.1,3.3,5.7,10.5c0,0-0.3-9.7-8.7-13.3c0,0-3.5-1.7-9.2-0.8c0-0.1,0-0.1-0.1-0.2 c-1.1-1.8-2.1-3.4-3.1-5.3c1.2-0.5,2.7-0.8,4.2-0.8c1.8,0,3,0.4,3.5,0.7c0.4,0.3,0.8,0.4,1.3,0.4c0.9,0,1.8-0.6,2.3-1.5 c0.7-1.3,0.2-3-1-3.8c-1.5-0.9-3.6-1.4-6-1.4c-2.5,0-4.9,0.5-6.9,1.5c-1.9-3.4-4.5-6.4-7.5-8.8c0.8-0.4,1.5-0.8,2.2-1.2 c1.6-0.9,3.4-1.6,5.1-2.3c0.4-0.2,0.8-0.3,1.2-0.5c1.4-0.5,2.8-1.1,4.2-1.7c2.3-1,4-1.9,5.5-3c1.8-1.3,3.4-2.8,4.7-4.6 c0.4-0.4,0.6-0.9,0.9-1.3l0.3-0.4l0.6-1.2l0.4-0.8c0.1-0.2,0.1-0.4,0.2-0.6c0-0.1,0.1-0.2,0.1-0.3l0.3-0.8l0.2-0.9 c0.2-1.1,0.2-2.3,0.1-3.8v-0.1c-0.2-1-0.5-2.4-1.1-3.6c-0.5-1-1.2-2-2.1-3.1l-0.3-0.3c-0.3-0.4-0.6-0.7-1-1l-0.7-0.6l-1.2-0.8 c-0.1-0.1-0.2-0.1-0.3-0.2l-1-0.5c-0.2-0.1-0.4-0.1-0.6-0.2c-0.1,0-0.2-0.1-0.3-0.1s-0.2-0.1-0.3-0.1c-0.2-0.1-0.5-0.2-0.7-0.2 c-0.1,0-0.3-0.1-0.4-0.1c-0.4-0.1-0.9-0.2-1.4-0.2l-0.9-0.1h-1c-2.3,0-4.6,0.5-6.8,1.4c-0.7,0.3-1.4,0.6-2.1,1 c-0.4-1.1-0.9-2.2-1.7-3.3c-2.1-3-4.9-4.6-8-4.6c-1.3,0-2.6,0.3-4,0.8c-1.4,0.6-3,1.5-4.7,2.7c-0.1-0.6-0.2-1.2-0.3-1.9 c-0.2-1.3-0.6-2.4-1.1-3.6c-0.6-1.4-1.3-2.5-2.2-3.5c-0.4-0.5-0.9-0.9-1.6-1.5c-0.5-0.4-1.2-0.9-1.9-1.2c-1.3-0.6-2.7-1-4.2-1.1 C100,0.6,98.6,0.7,97.2,1c-1.2,0.3-2.4,0.6-3.7,1.2c-0.6,0.2-1.2,0.5-1.7,0.8l-0.4,0.2L90.1,4c-2,1.4-3.7,3.3-5.2,5.7 c-0.5,0.8-0.9,1.7-1.3,2.6c-1.5-3-3.8-6-7.4-6h-0.5c-4.8,0.4-8.2,3-10.1,7.7c-1.4,3.5-1.9,8.3-1.6,14.2c-3-4.2-6.2-7.5-10.6-7.5 c-0.7,0-1.4,0-2.1,0.2c-3,0.7-5.2,2.9-6.4,6.5c-1.9,6-0.8,13.7,3.2,23c-3.4-2.4-6.2-3.5-8.9-3.5c-1,0-1.9,0.1-2.8,0.4 c-3.2,1-5.2,3.7-5.8,7.7c-0.8,5.8,2.7,12.7,6.5,18.2c-2.4-1.1-4.4-1.7-6.2-1.7c-1.4,0-2.7,0.3-3.8,1c-2.8,1.7-4.4,4.7-4.4,8.7 c-0.1,3.8,1.6,8.1,4.9,12.8c-1.6-0.7-3-1-4.3-1c-1.5,0-2.9,0.5-4.1,1.4c-2.6,2.1-4,4.7-4.1,7.9c-0.1,4,1.8,8.7,5.7,14 c-1.5-0.6-3.1-1.1-4.9-1.1c-0.3,0-0.7,0.1-1.1,0.1c-1.5,0.2-3.4,1.6-4.3,2.8c-4.8,6.5,0.1,15.4,4.9,21.4c-2.5-0.9-4.5-1.2-6.5-0.8 c-1.5,0.3-3.5,1.4-4.3,2.8c-3.9,6.6-0.3,15.2,10.7,25.5c-0.5,1.4-0.8,2.6-1.2,3.8c-0.6,2.2-2.4,11-2.7,14 c-0.8,7.6,1.8,13.6,8.3,19.5c11.8,10.7,36.9,18.1,60.9,18.1c9.4,0,18-1.2,25.1-3.4c6.5-2.1,9.2-7,8.1-14.4c0-0.1,0-0.2-0.1-0.4 c9.3,6.2,19.9,9.3,31.5,9.3c21.4,0,39.5-10.5,42.9-12.7c13.5-8.4,22.7-20.2,26.7-34.3C218.1,153.1,216.6,138.6,209.9,125.9z M158.3,90.9C158.3,90.8,158.3,90.8,158.3,90.9C158.3,90.8,158.3,90.8,158.3,90.9C158.3,90.8,158.3,90.8,158.3,90.9z M75.5,175.5 c-0.6,1.1-1.3,2.3-2,3.7c-1.5,3.2-3.2,4.8-4.9,4.8s-3.7-1.8-4.9-4.6c-1.7-3.9-1.8-9.6-0.2-12.4c0.5-0.9,1.2-1.4,2-1.5H66 c1,0,1.9,0.4,2.5,1.2c1,1.3,1.5,3.5,1.1,5.6l-1,5.2l2.5-4.6c0.5-1,2.2-3.4,4-3.4c0.6,0,1.2,0.3,1.8,0.9 C77.8,171.3,77.1,172.7,75.5,175.5z M127.4,28.4c1.3-1.3,2.7-2.4,4-3.4c1.5-1,3-1.8,4.4-2.4c1.4-0.6,2.9-0.9,4.4-0.9h0.5l0.6,0.1 c0.2,0,0.4,0.1,0.6,0.1c0.1,0,0.3,0.1,0.4,0.1h0.1c0,0.1,0.1,0.1,0.2,0.1c0.1,0.1,0.1,0.1,0.2,0.1c0.1,0.1,0.2,0.1,0.2,0.1 l0.5,0.2c0,0.1,0.1,0.1,0.1,0.1h0.1l0.2,0.1c0.1,0.1,0.3,0.2,0.4,0.3l0.4,0.3h0.1l0.4,0.4l0.3,0.3c0.4,0.5,0.8,1,1.1,1.6v0.1 c0.3,0.5,0.5,1.2,0.6,1.8c0.1,0.7,0.1,1.3,0,2c-0.1,0.1-0.1,0.3-0.1,0.5l-0.1,0.5c-0.1,0.1-0.1,0.2-0.1,0.3 c-0.1,0-0.1,0.1-0.1,0.2l-0.2,0.6c0,0.3-0.2,0.5-0.3,0.8c0,0.1-0.1,0.2-0.1,0.3c-0.1,0.1-0.1,0.2-0.2,0.3c0,0.1-0.1,0.1-0.1,0.2 l-0.1,0.1c0,0.2-0.1,0.3-0.2,0.4c-0.9,1.3-2,2.5-3.3,3.7c-2.1,1.7-4.6,3.1-7.3,4.6l-2.1,1.2c-3.3,1.8-5.7,3.5-7.6,5.4 c-0.7-0.4-1.4-0.9-2.1-1.3c2.5-2.4,4.7-4,7.4-5.8c6.7-4.6,6.6-8,6.2-9.2c-0.5-1.5-1.9-2.4-3.8-2.4c-1.4,0-2.8,0.5-4,1.4 c-4.7,3.4-8.6,8.9-10.9,13.3c-0.4-0.2-0.9-0.4-1.3-0.5c0.9-2.3,2.2-4.7,3.8-7.2C122.7,33.6,125,30.8,127.4,28.4z M118.8,27.7 c0.5-0.7,1.1-1.3,1.8-2c-2.3,2.7-4.1,5.7-5.4,8.3C116,32,117.1,29.8,118.8,27.7z M87.3,51.1L87.3,51.1c0.1,0,0.1-0.1,0.2-0.1 C87.4,51,87.4,51.1,87.3,51.1z M86.6,30c0.1-2.1,0.2-4.2,0.5-6.1c0.3-2.1,0.7-4.1,1.2-5.9c0.6-1.9,1.3-3.7,2.2-5.2 c1-1.6,2.1-2.9,3.3-3.8l0.8-0.5l0.3-0.2c0.4-0.2,0.7-0.4,1.2-0.6c0.8-0.4,1.6-0.6,2.4-0.8c0.7-0.1,1.3-0.2,1.9-0.2 c0.9,0,1.8,0.2,2.5,0.5c0.3,0.1,0.6,0.3,0.9,0.5c0.3,0.2,0.6,0.4,0.8,0.7c0.5,0.5,0.9,1.1,1.3,1.9c0.4,0.7,0.7,1.5,0.9,2.4 c0.2,1,0.4,1.8,0.4,2.6c0.1,1.7-0.1,3.5-0.6,5.6c-0.8,2.9-2,5.8-3.3,8.8l-1.2,2.9c-0.4,1-0.8,2-1.2,3.1c-0.4,1.1-0.7,2.2-1,3.2 c-0.1,0.4-0.2,0.7-0.3,1c-0.4,0.9-0.7,1.7-0.9,2.5l-2.4,0.3c0.4-3.9,1.3-6.8,2.2-9.8c2-6.4,1.1-9.5,0-11c-0.7-1-1.7-1.5-2.8-1.5 c-2.2,0-4.4,2-5.2,4.8c-1.8,6-1.3,13.5-0.3,18.8c-0.9,0.3-1.8,0.6-2.7,1c-0.2-0.8-0.3-1.7-0.4-2.6l-0.3-3.1 c-0.1-1.1-0.2-2.1-0.2-3.1C86.5,33.8,86.5,31.8,86.6,30z M72.7,18c-0.5,4.4-0.4,8.6-0.2,11.7c0.2,2.2,0.6,4.3,1,6.1 c-1.2-2.4-2.3-5.7-2.4-9.6C71.1,23.6,71.8,20.6,72.7,18z M51.8,33.3c0.3,4.3,1.2,8.4,2.2,11.4c0.7,2.1,1.4,4.1,2.2,5.8 c-1.7-2.1-3.4-5.1-4.3-8.9C51.3,39.1,51.4,36,51.8,33.3z M37.5,57.8c1.3,5.7,4.3,10.8,6.8,13.9c-2-1.3-4.4-3.3-5.7-6.4 C37.7,63.2,37.4,60.3,37.5,57.8z M35.8,93.3c-1.8-1-3.6-2.6-4.9-5c-0.9-1.6-1.3-3.8-1.5-5.8C30.9,86.9,33.5,90.8,35.8,93.3z M27.6,115.7c-1.8-1-3.6-2.6-4.9-5c-0.9-1.6-1.3-3.8-1.5-5.8C22.7,109.3,25.3,113.2,27.6,115.7z M10.1,152.1 c-0.3-0.9-0.5-1.9-0.6-3c0.7,2.4,1.9,4.6,3,6.3C11.5,154.6,10.7,153.5,10.1,152.1z M16,130.7c-0.5-1.1-0.9-2.5-1.1-3.9 c1.2,3,3,5.8,4.5,7.8C18.1,133.7,16.9,132.5,16,130.7z"/>
    </g>
  </g>
</svg>