<svg xmlns="http://www.w3.org/2000/svg" xml:space="preserve" width="831.999" height="831.999" style="shape-rendering:geometricPrecision;text-rendering:geometricPrecision;image-rendering:optimizeQuality;fill-rule:evenodd;clip-rule:evenodd" viewBox="0 0 8.667 8.667"><defs><style>.fil1{fill:#fffffe}</style></defs><g id="Layer_x0020_1"><circle cx="4.333" cy="4.333" r="4.333" style="fill:#6558f5"/><g id="_322450912"><path id="_322450528" d="m4.552 4.498.478.478a.16.16 0 0 1-.226.226l-.478-.477a.16.16 0 0 1 .226-.227" class="fil1"/><path id="_322450456" d="m4.597 5.296.565-.565a.08.08 0 0 1 .113 0l1.49 1.49.006.007a.116.116 0 0 1-.007.157l-.032-.032.032.033-.512.512a.117.117 0 0 1-.165 0l.056-.056-.057.056-1.489-1.489a.08.08 0 0 1 0-.113" style="fill:#fffffe;fill-rule:nonzero"/><path id="_322450960" d="M4.955 3.45c0-.419-.16-.838-.48-1.158s-.74-.48-1.158-.48c-.42 0-.839.16-1.159.48s-.48.74-.48 1.158c0 .42.16.839.48 1.159s.74.48 1.159.48A1.63 1.63 0 0 0 4.51 4.57c.296-.315.443-.718.443-1.12m-.32 0c0-.35-.138-.683-.387-.931a1.31 1.31 0 0 0-.931-.386c-.351 0-.684.137-.932.386a1.313 1.313 0 0 0 0 1.864c.248.248.58.385.932.385a1.31 1.31 0 0 0 .961-.416c.23-.245.357-.566.357-.902" class="fil1"/></g></g></svg>