<svg xmlns="http://www.w3.org/2000/svg" xml:space="preserve" viewBox="0 0 402 402"><path d="M394 154.2c-5.3-5.3-11.8-8-19.4-8H255.8V27.4c0-7.6-2.7-14.1-8-19.4S236 0 228.4 0h-54.8c-7.6 0-14.1 2.7-19.4 8s-8 11.8-8 19.4v118.8H27.4c-7.6 0-14.1 2.7-19.4 8S0 166 0 173.6v54.8c0 7.6 2.7 14.1 8 19.4s11.8 8 19.4 8h118.8v118.8c0 7.6 2.7 14.1 8 19.4s11.8 8 19.4 8h54.8c7.6 0 14.1-2.7 19.4-8s8-11.8 8-19.4V255.8h118.8c7.6 0 14.1-2.7 19.4-8s8-11.8 8-19.4v-54.8c0-7.6-2.7-14.1-8-19.4" style="fill:#6558f5"/></svg>