<svg xmlns="http://www.w3.org/2000/svg" width="64" height="64" fill="none"><path fill="#6558f5" d="M55 9.23a13.53 13.53 0 0 0-9.72-4.11h-.11A14.45 14.45 0 0 0 35 9.29L22.68 21.64a13.91 13.91 0 0 0-1.85 17.27 3.39 3.39 0 0 0 2.52 1.55q.19.015.38 0a3.48 3.48 0 0 0 2.46-1 3.44 3.44 0 0 0 .48-4.29 6.93 6.93 0 0 1 .92-8.62L40.17 14a6.9 6.9 0 0 1 5.2-2 6.84 6.84 0 0 1 5 2.5 7.09 7.09 0 0 1-.62 9.43l-2.46 2.46a3.46 3.46 0 0 0 0 4.91 3.48 3.48 0 0 0 4.91 0l2.63-2.63A13.9 13.9 0 0 0 55 9.23"/><path fill="#6558f5" d="M40.54 23.42a3.47 3.47 0 0 0-3.33 5.29 6.94 6.94 0 0 1-.91 8.63L23.72 49.92a6.94 6.94 0 0 1-5.2 2 6.87 6.87 0 0 1-5-2.51 7.06 7.06 0 0 1 .62-9.41l2.46-2.46a3.5 3.5 0 0 0 1-2.46 3.45 3.45 0 0 0-1-2.45 3.54 3.54 0 0 0-4.91 0L9.29 35a14.44 14.44 0 0 0-4.17 10.27A13.53 13.53 0 0 0 9.23 55a13.91 13.91 0 0 0 19.4-.16l12.58-12.59A13.93 13.93 0 0 0 43.06 25a3.41 3.41 0 0 0-2.52-1.58"/></svg>