<svg xmlns="http://www.w3.org/2000/svg" width="306" height="305" style="enable-background:new 0 0 306 305" xml:space="preserve"><path style="fill:#100f12" d="M79.211 260.542a19.7 19.7 0 0 0 3.242 8.373 17.39 17.39 0 0 0 4.84 4.682c2 1.29 4.452 2.188 7.052 2.433.646.086 1.3.068 1.953.056.655.013 1.298-.078 1.94-.166 1.285-.166 2.603-.56 3.778-1.055a16.995 16.995 0 0 0 5.81-4.225c2.158-2.463 3.587-5.274 4.223-8.149.19-.855-.946-1.37-1.474-.67-1.782 2.357-3.726 4.44-5.913 6.113-1.483 1.118-3.069 1.997-4.663 2.537-.816.236-1.567.456-2.418.5-.421.03-.84.107-1.256.076-.416-.003-.834.013-1.241-.06-3.29-.292-6.411-2.038-9.06-4.536-1.97-1.868-3.656-4.087-5.295-6.492-.497-.73-1.64-.291-1.518.583zM251.684 148.551c-1.867-.668-3.803-1.137-5.76-1.508-3.922-.74-7.942-.85-11.931-.673-3.992.216-7.954.815-11.851 1.68-1.95.426-3.883.932-5.796 1.497a106.388 106.388 0 0 0-5.649 1.837c-1.875.7-3.79 1.322-5.616 2.148l-2.764 1.189-2.698 1.328c-1.82.85-3.545 1.874-5.298 2.851-.886.474-1.712 1.044-2.567 1.569l-2.543 1.611-2.462 1.732c-.816.584-1.648 1.148-2.424 1.786-1.568 1.252-3.186 2.448-4.672 3.801l-2.264 1.99c-.735.686-1.443 1.4-2.166 2.099-.71.712-1.459 1.384-2.135 2.13l-2.047 2.217-1.017 1.114c-.328.382-.641.777-.962 1.164l-1.913 2.338c-.657.763-1.214 1.607-1.82 2.411l-1.78 2.442-1.632 2.547-.814 1.275-.406.637c-.13.216-.248.44-.373.658l-1.476 2.642-.736 1.322c-.225.451-.435.91-.654 1.366-.86 1.827-1.768 3.628-2.468 5.526l-1.116 2.814a113.877 113.877 0 0 0-2.688 8.575c-.51 1.93-.963 3.877-1.368 5.834-1.58 7.823-2.234 15.915-1.266 23.877.51 3.969 1.383 7.898 2.782 11.625.685 1.868 1.532 3.669 2.446 5.417a42.684 42.684 0 0 0 3.186 4.963c-3.606-6.967-5.314-14.61-5.45-22.225-.178-7.624.993-15.216 2.937-22.577a115.485 115.485 0 0 1 3.484-10.887c.335-.891.68-1.782 1.04-2.66l1.133-2.59c.702-1.748 1.61-3.405 2.461-5.084 3.489-6.681 7.893-12.882 12.97-18.48l1.909-2.095c.629-.706 1.333-1.34 1.996-2.014.676-.662 1.337-1.339 2.025-1.988l2.114-1.895c1.375-1.303 2.882-2.454 4.339-3.665.72-.616 1.496-1.16 2.256-1.726l2.28-1.7a102.003 102.003 0 0 1 19.891-10.968c1.818-.754 3.57-1.467 5.366-2.127 1.79-.66 3.602-1.26 5.427-1.82 3.653-1.102 7.374-2 11.148-2.571 3.771-.59 7.603-.836 11.43-.611 3.831.202 7.646.964 11.323 2.317-1.693-.985-3.5-1.786-5.361-2.465zM246.55 172.251c-.64 2.49.736 5.144 3.072 5.926 2.336.781 4.748-.604 5.386-3.095.639-2.49-.737-5.144-3.073-5.926-2.336-.781-4.747.604-5.386 3.095z"/><path style="fill:#100f12" d="M212.896 181.675c-.638 2.49.737 5.144 3.073 5.925 2.336.782 4.747-.603 5.386-3.094.639-2.491-.737-5.144-3.073-5.926-2.336-.781-4.747.604-5.386 3.095zM194.334 119.43a2.367 2.367 0 0 1-2.054-.98 6.2 6.2 0 0 0-.056.902c.109 3.258 2.71 5.78 5.808 5.633 3.1-.148 5.524-2.908 5.415-6.166-.109-3.258-2.71-5.78-5.809-5.632-1.45.068-2.739.725-3.703 1.721.082-.012.162-.031.247-.035 1.317-.063 2.419.907 2.461 2.165.042 1.26-.992 2.33-2.309 2.393zM140.332 90.036c.56 0 1.124-.228 1.596-.696 4.075-4.055 11.809-3.708 14.28-1.987 1.23.861 2.788.313 3.478-1.216.691-1.53.252-3.464-.978-4.321-4.632-3.23-14.573-2.805-19.974 2.567-1.102 1.095-1.28 3.094-.398 4.462.505.783 1.248 1.19 1.996 1.19zM131.538 108.455c-.244.339-.434.706-.626 1.073l-.578 1.1c-.19.368-.324.76-.487 1.139-.152.383-.32.763-.449 1.154-.49 1.57-.888 3.17-1.06 4.791l-.128 1.217-.033 1.218c-.04.824.01 1.592.034 2.376.017.78.123 1.572.19 2.356.12.79.208 1.578.377 2.367l.255 1.183c.083.394.223.784.333 1.175.208.785.54 1.55.832 2.318.68 1.513 1.519 2.977 2.592 4.275 2.147 2.602 5.048 4.433 8.017 5.509 2.97 1.094 6.09 1.624 9.178 1.687 3.09.06 6.144-.367 9.072-1.143.739-.169 1.453-.432 2.177-.644.716-.238 1.418-.52 2.123-.782 1.387-.595 2.75-1.233 4.045-1.995a21.385 21.385 0 0 0 3.669-2.598c.283-.246.563-.496.809-.784.256-.276.515-.548.733-.854.45-.6.86-1.224 1.228-1.872.746-1.29 1.343-2.658 1.856-4.05.186-.516.355-1.04.51-1.567l-.027-.01c-.16.526-.334 1.047-.525 1.561a23.821 23.821 0 0 1-1.955 3.982c-1.478 2.6-3.958 4.371-6.597 5.632-5.287 2.55-11.301 3.502-16.959 2.813a26.15 26.15 0 0 1-8.072-2.356c-2.518-1.16-4.62-2.88-6.124-4.966-.757-1.048-1.311-2.227-1.802-3.437a22.495 22.495 0 0 1-.988-3.878c-.125-.665-.177-1.358-.263-2.037-.032-.696-.108-1.38-.12-2.083-.014-.7-.054-1.415-.01-2.073l.035-1.007.113-.996c.293-2.655 1.078-5.234 2.417-7.483 1.32-2.261 3.164-4.202 5.388-5.715 4.43-3.068 10.311-4.376 15.96-4.605a18.428 18.428 0 0 1 4.202.431c1.38.3 2.746.743 4.017 1.398 2.55 1.288 4.832 3.195 6.614 5.522 1.788 2.324 3.137 5 4.053 7.812.685 2.149 1.161 4.393 1.25 6.656h.021a21.755 21.755 0 0 0-.2-2.344c-.202-1.47-.5-2.93-.916-4.36-.822-2.858-2.036-5.62-3.698-8.13-1.662-2.502-3.822-4.74-6.452-6.358a19.03 19.03 0 0 0-4.203-1.957 20.476 20.476 0 0 0-4.569-.96c-.777-.106-1.555-.098-2.337-.137l-2.297.067-1.152.037-1.15.127c-.767.099-1.543.146-2.308.294l-2.297.487c-.764.178-1.51.454-2.27.681-.767.206-1.486.57-2.228.876-.364.168-.746.3-1.098.5l-1.054.605c-2.806 1.623-5.295 3.955-7.068 6.762z"/><path style="fill:#100f12" d="M144.076 128.652a2.941 2.941 0 0 1-2.552-1.218 7.64 7.64 0 0 0-.07 1.12c.135 4.048 3.367 7.182 7.218 6.999 3.85-.183 6.863-3.613 6.728-7.661-.135-4.049-3.367-7.182-7.218-7-1.802.086-3.404.901-4.602 2.14.102-.015.201-.04.307-.045 1.637-.077 3.006 1.128 3.058 2.692.053 1.564-1.232 2.895-2.869 2.973zM186.82 105.25a14.76 14.76 0 0 0 0 0zM187.618 104.01l-.03.043.03-.043zM188.616 125.163l.004.004-.004-.004zM201.923 94.507c.233.014.462.03.684.05l-.496-.042-.188-.008zM212.638 99.719l-.05-.03c.066.045.136.087.202.133-.096-.067-.152-.103-.152-.103zM206.006 95.107c-.132-.033-.266-.062-.4-.093.139.03.272.062.4.093zM212.46 98.187zM197.418 131.668l.268.01c-.091-.002-.178-.008-.268-.01z"/><path style="fill:#100f12" d="M182.972 85.625c2.366 4.636 4.215 7.94 6.38 11.383 1.371-.88 6.209-2.164 6.209-2.164a.662.662 0 0 0-.092-.242 116.833 116.833 0 0 1-4.9-8.365c4.244-2.296 10.407-1.895 12.564-.57 1.23.76 2.788.275 3.478-1.073.69-1.35.252-3.056-.978-3.812-4.018-2.471-12.028-2.514-17.607.609a42.698 42.698 0 0 0-11.836-13.588 42.598 42.598 0 0 1 4.36-2.578c2.326-1.19 4.733-2.19 7.177-3.162 2.446-.967 4.933-1.904 7.423-2.998 2.481-1.096 4.979-2.36 7.317-4.014a26.775 26.775 0 0 0 6.247-6.058c.45-.584.84-1.208 1.236-1.827.368-.637.753-1.24 1.073-1.973l.496-1.062c.17-.352.266-.742.4-1.114l.367-1.132.237-1.18c.322-1.577.308-3.221.162-4.844-.26-1.606-.628-3.225-1.36-4.692-.66-1.502-1.62-2.844-2.682-4.08-.579-.572-1.115-1.197-1.773-1.683l-.96-.762-1.038-.653-.523-.32c-.177-.1-.366-.18-.549-.271l-1.111-.521c-.374-.166-.77-.276-1.155-.413-.392-.117-.77-.285-1.175-.353-.795-.16-1.619-.375-2.383-.416l-1.165-.111c-.389-.025-.778-.015-1.167-.017-3.114.017-6.171.696-8.92 1.842a31.28 31.28 0 0 0-4.039 2.055c-.406-1.82-1.225-3.683-2.565-5.604-3.812-5.472-9.083-7.145-15.224-4.857-2.551.949-5.2 2.596-7.877 4.744-.01-1.492-.211-2.988-.49-4.46a24.072 24.072 0 0 0-1.503-4.797c-.692-1.57-1.614-3.11-2.832-4.486-.591-.699-1.292-1.323-2.018-1.914-.753-.56-1.54-1.092-2.394-1.497-1.695-.835-3.544-1.31-5.352-1.463-1.814-.161-3.595-.025-5.294.31-1.703.336-3.317.885-4.862 1.547a27.6 27.6 0 0 0-2.253 1.11l-.548.308-.554.357-1.101.724c-2.85 2.065-5.013 4.813-6.643 7.672-1.087 1.928-1.93 3.928-2.614 5.952-2.625-6.216-5.92-10.351-10.872-9.953-6.14.481-10.502 3.813-12.977 9.913-2.466 6.104-2.743 14.419-1.855 23.133-5.834-8.726-10.845-14.71-18.702-12.97-4.129.915-6.681 4.152-7.988 8.204-3.074 9.535-.138 21.843 6.213 34.96-6.67-5.547-12.568-8.684-18.581-6.846-4.547 1.39-6.667 5.437-7.263 9.662-1.158 8.2 4.613 18.962 11.79 28.303-6.652-4.208-12.591-6.254-17.098-3.481-3.981 2.45-5.486 6.675-5.54 11.057-.081 6.565 3.902 13.806 9.427 20.668-5.705-3.386-10.792-4.77-14.703-1.694-3.328 2.624-5.09 5.99-5.235 10.005-.256 7.12 4.663 15.32 11.029 22.875-4.401-2.871-8.167-4.568-12.526-4.092-1.761.192-4.096 1.825-5.21 3.35-6.399 8.751.65 21.521 9.911 31.905-4.717-2.513-8.692-3.813-12.737-3.065-1.739.322-4.168 1.683-5.122 3.308-5.494 9.37 1.285 21.372 15.056 34.15a317.858 317.858 0 0 0-1.824 5.825c-.933 3.093-3.318 15.106-3.732 19.067-1.028 9.837 2.05 17.801 11.014 25.868 16.857 15.172 51.908 24.638 83.09 24.637 12.371 0 24.136-1.49 33.91-4.706 8.4-2.763 11.815-8.889 10.392-18.6-.216-1.267-.49-1.021-.512.329-.152 9.727-8.203 10.926-11.896 12.141-15.01 4.937-37.037 5.727-58.923 2.112-22.366-3.694-41.226-11.242-51.744-20.71-7.246-6.52-9.047-13.511-9.047-21.07 0-2.385 2.827-14.554 3.626-17.203 2.514-8.33 5.855-17.941 9.216-27.074 2.071 4.975 7.367 11.6 9.794 13.31.563.397 1.282-.22.982-.84-2.19-4.518-6.832-15.386-7.535-21.126a851.973 851.973 0 0 1 5.95-15.2c1.093 5.639 6.722 13.555 11.169 16.887.61.457 1.414-.225 1.055-.897-3.365-6.288-8.35-16.494-8.15-25.77.013-.028.026-.057.037-.086l.022-.054a669.012 669.012 0 0 1 5.22-11.448c1.87 7.058 6.906 14.595 10.443 18.761.556.655 1.602.067 1.335-.749-2.418-7.37-5.698-19.84-6.382-29.286a631.733 631.733 0 0 1 2.148-4.342l.016-.033a589.475 589.475 0 0 1 4.112-8.07c1.785 6.822 6.603 14.252 9.986 18.313.648.779 1.907.113 1.602-.853-2.226-7.064-5.29-18.704-6.091-27.782a483.756 483.756 0 0 1 4.564-8.172l.11-.196c.05-.087.096-.171.147-.255.017-.026.032-.053.048-.08.862-1.501 1.72-2.968 2.576-4.415 1.962 6.233 7.25 13.76 10.658 17.532.72.799 2.024.03 1.669-.985-2.26-6.453-5.668-17.49-6.745-25.688 1.68-2.656 3.338-5.19 4.964-7.585a207.702 207.702 0 0 1 3.283-4.734c.072-.101.145-.2.218-.3 1.746 5.838 6.68 12.609 9.81 16.074.704.78 1.979.078 1.687-.932-1.695-5.861-4.262-15.726-5.168-23.453.217-.268.434-.543.65-.806.058-.07.113-.144.165-.219 4.626-6.716 11.448-12.22 19.728-15.914.027-.012.051-.027.078-.04.034-.016.069-.03.103-.047 7.09-3.707 14.812-4.751 21.07-4.805 9.193 3.668 18.866 12.14 23.322 21.318.415.854 1.704.526 1.667-.422-.24-6.293-.866-12.366-3.137-16.45 6.126 2.981 12.375 7.978 16.644 16.344zM16.143 208.803c-1.55-3.76-1.114-9.903-.045-11.85.199 9.346 6.892 18.46 9.07 19.902-1.883-.458-6.895-2.882-9.025-8.052zm8.217-29.426c-2.106-4.16-2.395-11.286-1.496-13.65 1.353 10.747 9.582 20.494 12.073 21.909-2.058-.315-7.68-2.543-10.577-8.26zm9.074-27.435c-2.49-4.764-2.747-12.927-1.632-15.636 1.497 12.31 11.31 23.475 14.3 25.095-2.481-.36-9.244-2.911-12.668-9.459zm11.271-30.745c-2.491-4.764-2.747-12.927-1.632-15.637 1.497 12.311 11.309 23.475 14.299 25.096-2.48-.36-9.243-2.912-12.667-9.46zm10.54-31.803c-2.359-5.47-1.787-14.44-.217-17.297.415 13.64 10.515 26.855 13.781 28.93-2.814-.642-10.32-4.116-13.563-11.633zM73.494 56.58c-1.54-6.542.16-16.351 2.135-19.405-1.582 15.604 6.283 33.897 9.218 36.686-3.84-1.997-9.236-8.29-11.353-17.281zm26.544-21.378c-.213-6.717 3.398-15.995 5.938-18.597-4.642 14.982-.558 34.47 1.767 37.785-3.37-2.719-7.411-9.955-7.705-19.188zm20.194 25.58c-.185-.367-.356-.74-.533-1.11-.168-.375-.317-.756-.477-1.134l-.903-2.292c-.273-.775-.505-1.562-.76-2.344-.97-3.142-1.679-6.376-2.052-9.653-.385-3.273-.508-6.585-.26-9.875.096-1.645.337-3.284.64-4.903.36-1.604.733-3.241 1.518-4.697-.337 1.601-.417 3.212-.486 4.82-.02.807-.062 1.607-.042 2.413l-.005 1.204.03 1.204c.092 3.207.336 6.401.718 9.58.359 3.184.923 6.34 1.548 9.496.6 3.168 1.46 6.274 2.183 9.479-.39-.72-.756-1.452-1.119-2.188zm30.577-32.418c-1.385 5.396-3.957 10.727-6.224 16.231a94.743 94.743 0 0 0-1.63 4.183 53.333 53.333 0 0 0-1.38 4.293c-.129.45-.247.904-.361 1.358-.617 1.45-1.123 2.808-1.48 4.138a58.09 58.09 0 0 0-5.394.698c.58-6.17 1.868-10.436 3.274-15.06 5.797-19.064-6.426-18.778-8.993-9.89-2.511 8.692-1.6 19.644-.154 26.348a46.725 46.725 0 0 0-5.865 2.2c-.3-1.662-.539-3.351-.742-5.037-.167-1.437-.299-2.88-.404-4.324a106.69 106.69 0 0 1-.247-4.333c-.096-2.89-.127-5.777 0-8.648a84.12 84.12 0 0 1 .729-8.533c.374-2.809.932-5.571 1.699-8.222.759-2.65 1.774-5.182 3.084-7.434 1.306-2.25 2.926-4.218 4.882-5.621l.75-.496.372-.252.416-.237c.558-.318 1.136-.6 1.716-.863 1.165-.51 2.363-.926 3.56-1.169 2.392-.534 4.762-.417 6.694.476.491.21.942.497 1.391.794.427.331.86.666 1.236 1.087.78.805 1.444 1.8 1.99 2.912a18.383 18.383 0 0 1 1.335 3.584c.306 1.252.548 2.526.61 3.831.176 2.605-.188 5.293-.864 7.986zm8.14 27.469c-.567-4.13 1.066-12.078 6.812-19.29 3.997-5.015 10.899-10.153 14.33-10.306-12.873 7.458-20.604 25.736-21.142 29.596zm11.954 8.578c3.85-3.978 7.167-6.288 10.762-8.784 15.177-10.536 6.12-17.354-.856-12.365-6.684 4.78-12.226 13.024-15.083 18.725a48.638 48.638 0 0 0-3.778-1.315c1.554-3.875 3.588-7.591 5.83-11.122 2.78-4.311 5.921-8.384 9.48-11.926 1.77-1.778 3.65-3.414 5.635-4.827 1.972-1.427 4.062-2.622 6.216-3.465 2.144-.876 4.366-1.318 6.548-1.313.272.008.546-.013.818.004l.812.074c.564.017 1.023.168 1.528.248.254.027.483.15.726.215.238.086.488.14.718.243l.689.32c.114.054.234.098.344.16l.323.2c.216.133.431.266.653.39l.604.463c.43.28.751.68 1.135 1.014.67.758 1.308 1.565 1.729 2.488.49.892.747 1.878.972 2.868.115 1.006.2 2.036.023 3.067-.038.258-.069.517-.1.778l-.206.769c-.077.255-.11.521-.219.77l-.304.757c-.168.501-.467 1.036-.727 1.564-.133.264-.292.511-.436.769-.146.256-.288.516-.454.758-1.246 2.003-2.847 3.774-4.702 5.362-3.729 3.173-8.465 5.504-13.11 8.158-3.864 2.193-7.705 4.746-10.805 7.96a44.286 44.286 0 0 0-4.765-3.007z"/><path style="fill:#100f12" d="M114.125 305c-33.052 0-67.522-10.247-83.824-24.919-8.959-8.063-12.466-16.328-11.371-26.8.434-4.16 2.845-16.196 3.772-19.27.49-1.618 1.032-3.358 1.616-5.179-15.104-14.175-20.065-25.96-14.744-35.034 1.132-1.929 3.873-3.463 5.87-3.832 2.757-.51 5.559-.192 8.927 1.082-6.534-8.268-13.405-20.44-6.788-29.491 1.227-1.678 3.798-3.556 5.978-3.793a14.52 14.52 0 0 1 1.569-.086c2.416 0 4.655.63 6.756 1.572-5.38-7.325-8.002-13.774-7.807-19.216.158-4.353 2.06-7.996 5.653-10.829 1.642-1.291 3.56-1.946 5.701-1.946 1.775 0 3.74.45 5.94 1.362-4.568-6.523-6.847-12.41-6.783-17.54.066-5.438 2.162-9.58 6.062-11.98 1.544-.95 3.307-1.432 5.24-1.432 2.503 0 5.28.765 8.539 2.375-5.258-7.615-10.1-17.071-8.983-24.983.77-5.46 3.622-9.21 8.03-10.558a13.067 13.067 0 0 1 3.823-.575c3.674 0 7.539 1.519 12.207 4.854-5.563-12.808-7.04-23.45-4.386-31.68 1.588-4.926 4.63-8.017 8.796-8.94a13.387 13.387 0 0 1 2.885-.327c6.029 0 10.483 4.596 14.629 10.366-.47-8.093.287-14.653 2.262-19.54 2.643-6.516 7.323-10.08 13.91-10.597.245-.02.493-.03.736-.03 5.005 0 8.106 4.18 10.12 8.214a33.166 33.166 0 0 1 1.759-3.628c1.922-3.372 4.26-6.07 6.954-8.022l.042-.029 1.72-1.12.55-.308c.693-.386 1.459-.764 2.343-1.156 1.795-.77 3.458-1.298 5.095-1.62 1.912-.377 3.803-.487 5.605-.327 2.01.17 3.997.713 5.739 1.571 1 .474 1.897 1.105 2.565 1.601l.038.03c.94.765 1.607 1.4 2.162 2.056 1.188 1.34 2.202 2.946 3 4.753a25.157 25.157 0 0 1 1.574 5.018c.175.926.303 1.767.387 2.554 2.284-1.66 4.47-2.884 6.52-3.645 1.895-.706 3.746-1.065 5.501-1.065 4.32 0 8.126 2.187 11.008 6.322 1.046 1.5 1.83 3.035 2.343 4.578a31.61 31.61 0 0 1 2.935-1.413c2.982-1.244 6.21-1.91 9.338-1.927h.48c.255 0 .508.002.762.018l1.18.112c.666.039 1.332.182 1.975.321.181.04.362.078.541.114.325.054.646.165.928.263.115.04.23.08.345.115l.052.017c.115.04.233.08.35.118.285.094.58.191.884.326l1.32.62c.148.07.295.14.437.22l1.702 1.068.96.762c.522.387.977.856 1.416 1.31.148.152.295.304.445.453l.061.065c1.288 1.499 2.219 2.915 2.844 4.33.847 1.708 1.219 3.559 1.45 4.983l.009.077c.183 2.028.126 3.668-.18 5.162l-.268 1.298-.366 1.133c-.052.147-.09.262-.126.376a6.657 6.657 0 0 1-.33.876l-.49 1.05c-.27.615-.585 1.151-.89 1.67l-.358.593c-.367.576-.747 1.172-1.186 1.742a27.992 27.992 0 0 1-6.493 6.291c-2.06 1.458-4.445 2.768-7.499 4.116-1.949.857-3.907 1.622-5.8 2.363-.556.217-1.11.434-1.662.652-2.298.914-4.747 1.925-7.081 3.119-.98.5-1.971 1.062-2.963 1.68A43.627 43.627 0 0 1 188.46 79.93c2.759-1.324 6.068-2.046 9.442-2.046 3.3 0 6.25.697 8.307 1.962 1.706 1.049 2.325 3.404 1.38 5.249-.64 1.252-1.87 2.03-3.208 2.03-.64 0-1.27-.181-1.825-.524-.681-.419-2.339-.91-4.757-.91-2.083 0-4.069.366-5.712 1.042a112.818 112.818 0 0 0 4.307 7.276c.122.191.206.404.248.635l.186 1-.984.262c-1.806.48-5.005 1.453-5.898 2.026l-.933.6-.59-.94c-2.171-3.453-4.034-6.775-6.428-11.467-3.125-6.123-7.625-10.948-13.404-14.38 1.402 4.153 1.795 9.28 1.973 13.943.021.548-.17 1.06-.54 1.445-.375.389-.904.612-1.451.612a1.95 1.95 0 0 1-1.763-1.112c-4.12-8.485-13.365-16.967-22.54-20.697-7.75.094-14.597 1.668-20.355 4.677a1.91 1.91 0 0 1-.129.062c-.037.019-.071.037-.107.053-8.1 3.615-14.765 8.986-19.277 15.536-.07.103-.143.2-.22.293-.118.143-.235.29-.353.437 1.034 8.315 3.884 18.692 5.078 22.82.184.64.066 1.304-.325 1.823-.398.53-1.03.846-1.692.846a2.06 2.06 0 0 1-1.541-.695c-2.536-2.807-7.044-8.699-9.33-14.445a221.865 221.865 0 0 0-2.255 3.282 278.49 278.49 0 0 0-4.733 7.22c1.041 7.48 4.096 17.814 6.64 25.076a2.044 2.044 0 0 1-.254 1.881 2.127 2.127 0 0 1-1.732.897 2.052 2.052 0 0 1-1.536-.693c-2.876-3.184-7.599-9.651-10.076-15.703-.49.838-.95 1.632-1.39 2.396l-.069.117a4.824 4.824 0 0 0-.098.172l-.134.236a484.671 484.671 0 0 0-4.396 7.864c.8 8.528 3.62 19.619 6.015 27.219a1.979 1.979 0 0 1-.282 1.784 2.067 2.067 0 0 1-1.662.84 1.992 1.992 0 0 1-1.55-.737c-3.125-3.753-7.206-9.956-9.396-16.13a581.64 581.64 0 0 0-4.904 9.774c.713 9.178 3.831 21.18 6.308 28.728.19.583.099 1.196-.253 1.682a1.909 1.909 0 0 1-1.541.789 1.843 1.843 0 0 1-1.422-.669c-3.266-3.846-7.517-10.174-9.801-16.446a661.932 661.932 0 0 0-3.988 8.795c-.114 8.768 4.516 18.467 8.022 25.02.304.566.29 1.228-.034 1.77a1.83 1.83 0 0 1-1.56.891c-.39 0-.767-.127-1.088-.367-3.79-2.841-8.522-8.94-10.66-14.439a870.697 870.697 0 0 0-4.675 12.004c.754 5.372 4.91 15.38 7.399 20.516.267.552.235 1.19-.088 1.703a1.79 1.79 0 0 1-1.502.84c-.36 0-.711-.113-1.014-.327-2.343-1.65-6.537-6.84-9.019-11.4-3.439 9.443-6.23 17.703-8.306 24.583-.805 2.668-3.58 14.714-3.58 16.885 0 8.72 2.598 14.777 8.684 20.255 10.366 9.33 29.023 16.781 51.188 20.442 8.954 1.48 17.921 2.229 26.655 2.229 12.216 0 23.194-1.488 31.745-4.3a42.09 42.09 0 0 1 1.346-.409c4.082-1.191 9.672-2.823 9.795-10.706.011-.67.036-2.24 1.315-2.24 1.081 0 1.29 1.222 1.38 1.744 1.5 10.242-2.247 16.905-11.133 19.827-9.465 3.114-21.31 4.761-34.254 4.762zM17.947 191.934c-.707 0-1.415.065-2.104.192-1.454.27-3.607 1.478-4.373 2.784-4.789 8.166.21 19.198 14.855 32.79l.513.476-.215.667a316.694 316.694 0 0 0-1.817 5.804c-.883 2.927-3.275 14.886-3.691 18.863-1.027 9.833 2.16 17.291 10.656 24.938 15.933 14.34 49.799 24.355 82.354 24.355 12.714-.001 24.321-1.61 33.568-4.652 5.752-1.892 8.981-5.464 9.76-10.847-2.393 4.252-6.984 5.592-9.816 6.419-.463.135-.892.26-1.274.386-8.77 2.885-19.986 4.41-32.432 4.41-8.853 0-17.942-.76-27.013-2.258-22.568-3.727-41.63-11.373-52.3-20.977-8.34-7.506-9.41-15.64-9.41-21.888 0-2.628 2.896-14.947 3.673-17.52 2.264-7.505 5.372-16.634 9.236-27.135l.968-2.63 1.077 2.587c1.61 3.867 5.348 8.886 7.885 11.472-2.178-4.786-6.09-14.193-6.749-19.572l-.033-.27.097-.255a851.736 851.736 0 0 1 5.958-15.22l1.39-3.449.708 3.65c.936 4.833 5.337 11.339 9.248 14.956-3.488-6.736-7.535-15.984-7.35-24.549l.004-.212.142-.337a672.152 672.152 0 0 1 5.234-11.48l1.281-2.744.776 2.927c1.62 6.11 5.73 12.7 9.16 17.036-2.443-7.777-5.284-19.16-5.92-27.95l-.022-.296.13-.267c.715-1.456 1.431-2.908 2.152-4.35l.03-.059a586.71 586.71 0 0 1 4.106-8.06l1.316-2.534.722 2.763c1.542 5.894 5.636 12.733 9.207 17.203-2.4-7.773-5.124-18.722-5.868-27.15l-.03-.331.16-.292c1.58-2.89 3.12-5.646 4.575-8.19l.108-.192c.067-.119.115-.204.167-.289l.024-.04a419.345 419.345 0 0 1 2.59-4.44l1.254-2.12.74 2.35c1.904 6.048 6.915 13.122 10.058 16.713-1.457-4.21-5.4-16.148-6.613-25.381l-.052-.395.212-.336c1.694-2.677 3.37-5.24 4.984-7.614a209.638 209.638 0 0 1 3.298-4.756l1.522-2.123.642 2.147c1.508 5.04 5.786 11.365 9.255 15.296-1.3-4.541-4.101-14.912-5.07-23.164l-.053-.46.554-.687c.131-.163.262-.326.393-.485a2.19 2.19 0 0 0 .11-.147c4.739-6.88 11.719-12.515 20.184-16.292l.125-.06.225-.117-2.744-5.05a61.293 61.293 0 0 1-1.139-2.228c-.132-.262-.263-.539-.393-.815l-.145-.308c-.125-.276-.23-.532-.336-.789l-.162-.389-.913-2.318c-.195-.55-.359-1.069-.522-1.588-.086-.273-.172-.546-.261-.818-1.028-3.33-1.732-6.646-2.098-9.869-.414-3.518-.503-6.911-.264-10.082.086-1.494.295-3.096.656-5.022.36-1.617.762-3.407 1.63-5.017l1.741-3.225-.628-1.488c-2.683-6.351-5.61-9.309-9.21-9.309-.185 0-.372.008-.563.023-5.69.446-9.743 3.552-12.047 9.231-2.163 5.355-2.763 12.962-1.78 22.608l.447 4.392-2.454-3.67c-5.542-8.29-9.597-12.782-15.14-12.782-.774 0-1.585.092-2.41.275-4.247.94-6.249 4.58-7.18 7.468-2.752 8.535-.681 20.023 6.156 34.145l2.213 4.57-3.904-3.247c-5.92-4.923-10.355-7.119-14.377-7.119a10.87 10.87 0 0 0-3.181.48c-4.783 1.461-6.123 6.118-6.496 8.763-.955 6.764 3.155 16.524 11.573 27.48l3.768 4.905-5.226-3.306c-4.872-3.082-8.747-4.58-11.847-4.58-1.542 0-2.879.361-4.088 1.106-4.075 2.507-4.978 6.895-5.017 10.134-.07 5.593 3.02 12.31 9.183 19.966l3.816 4.739-5.232-3.105c-3.685-2.187-6.668-3.25-9.121-3.25-1.66 0-3.08.482-4.341 1.475-3.063 2.414-4.684 5.503-4.817 9.181-.214 5.947 3.41 13.392 10.77 22.127l4.806 5.703-6.246-4.075c-4.964-3.239-8.23-4.311-11.805-3.92-1.342.146-3.419 1.504-4.443 2.906-6.813 9.319 3.243 23.125 9.844 30.526l4.101 4.597-5.437-2.896c-4.085-2.176-7.144-3.147-9.918-3.147zM163.672 66.766l3.136 1.527c7.55 3.675 13.318 9.338 17.143 16.833 2.166 4.244 3.888 7.348 5.804 10.452 1.213-.524 2.93-1.058 4.136-1.409a117.735 117.735 0 0 1-4.29-7.414l-.516-.964.962-.52c2.116-1.146 4.87-1.777 7.751-1.777 2.44 0 4.65.462 5.91 1.236.677.419 1.54.114 1.925-.636.427-.834.163-1.922-.576-2.376-1.69-1.04-4.299-1.636-7.156-1.636-3.36 0-6.764.826-9.338 2.268l-.964.539-.534-.966a41.51 41.51 0 0 0-11.533-13.24l-.51-.373a43.309 43.309 0 0 0-4.647-2.934l-1.266-.692 1.003-1.036c3.948-4.078 7.337-6.431 10.926-8.922 6.59-4.576 8.287-8.29 7.676-10.241-.346-1.104-1.532-1.79-3.096-1.79-1.37 0-2.852.52-4.17 1.462-6.387 4.567-11.802 12.46-14.74 18.323l-.451.899-.935-.37a47.836 47.836 0 0 0-3.694-1.285l-1.147-.347.446-1.113c1.448-3.61 3.385-7.306 5.923-11.302 3.022-4.687 6.261-8.761 9.633-12.116 1.888-1.898 3.831-3.563 5.772-4.943 2.131-1.542 4.305-2.753 6.452-3.593 2.249-.92 4.579-1.388 6.91-1.388l.603-.003c.107 0 .215.002.322.008l.812.074c.455.017.841.1 1.183.172.141.03.283.06.428.085.278.034.512.12.684.182.059.022.117.044.177.06l.086.028c.074.026.15.048.224.071.172.052.368.11.575.204l.8.37c.11.047.218.096.321.155l.363.224c.215.131.411.252.613.367l.127.084.573.439c.35.234.628.508.874.751.112.112.225.225.345.33l.102.1c.653.74 1.386 1.64 1.888 2.723.56 1.03.84 2.148 1.06 3.117l.021.119c.115 1.003.22 2.175.015 3.377-.03.206-.057.434-.085.664l-.037.213-.206.769c-.032.106-.048.18-.065.253-.044.19-.1.425-.208.674l-.28.698c-.154.448-.376.884-.59 1.306-.062.121-.124.242-.183.362a9.313 9.313 0 0 1-.31.556l-.152.262-.071.126c-.129.227-.261.461-.422.698-1.238 1.985-2.89 3.868-4.908 5.595-3.03 2.579-6.589 4.552-10.357 6.64-.971.54-1.949 1.082-2.923 1.638a69.293 69.293 0 0 0-3.923 2.39c1.43-.634 2.856-1.215 4.228-1.76l1.671-.657c1.873-.732 3.81-1.489 5.716-2.327 2.914-1.287 5.178-2.528 7.124-3.905a25.822 25.822 0 0 0 5.999-5.814c.393-.511.73-1.04 1.088-1.6l.316-.528c.285-.483.554-.94.781-1.459l.508-1.087c.085-.177.152-.386.223-.606.045-.14.09-.279.139-.415l.335-1.039.225-1.117c.26-1.273.307-2.7.148-4.49-.207-1.272-.537-2.905-1.253-4.34l-.022-.049c-.532-1.21-1.344-2.444-2.48-3.772-.151-.15-.3-.302-.447-.455-.395-.407-.768-.792-1.175-1.094l-.942-.747-1.499-.933c-.063-.035-.16-.08-.26-.127l-1.293-.608a7.71 7.71 0 0 0-.66-.238c-.124-.041-.248-.082-.371-.126a10.88 10.88 0 0 1-.408-.135 4.034 4.034 0 0 0-.606-.178 32.728 32.728 0 0 1-.606-.127c-.594-.128-1.155-.249-1.655-.276l-.045-.003-1.166-.112a10.42 10.42 0 0 0-.588-.012l-.366.001h-.113c-2.833.015-5.773.623-8.492 1.757a30.316 30.316 0 0 0-3.896 1.983l-1.307.785-.15-.672-1.153.668c-12.45 7.213-20.08 25.035-20.605 28.797l-1.097 7.863-1.08-7.866c-.636-4.637 1.296-12.912 7.042-20.123 3.925-4.926 11.108-10.54 15.14-10.72l1.415-.062c-.429-1.542-1.164-3.05-2.237-4.588-2.488-3.57-5.585-5.381-9.205-5.381-1.492 0-3.085.311-4.735.926-2.321.863-4.869 2.4-7.572 4.57l-1.77 1.423-.016-2.271c-.009-1.258-.159-2.612-.47-4.264a22.93 22.93 0 0 0-1.433-4.563c-.702-1.594-1.593-3.007-2.646-4.195-.478-.564-1.05-1.107-1.87-1.776-.584-.433-1.358-.977-2.19-1.372a14.018 14.018 0 0 0-4.974-1.36c-1.612-.143-3.281-.043-4.99.293-1.484.293-3.003.777-4.641 1.48-.81.358-1.518.707-2.15 1.06l-.517.289-1.598 1.043c-2.43 1.766-4.553 4.226-6.312 7.312-.927 1.643-1.719 3.424-2.416 5.432l-1.234 5.865c-.308 1.46-.39 2.905-.464 4.642l-.019.627c-.019.591-.037 1.15-.023 1.711l-.004 1.235.029 1.173c.09 3.11.329 6.299.71 9.476.384 3.4.992 6.666 1.536 9.413.048.254.097.507.148.759l-.034-.454c-.119-1.568-.2-3-.249-4.374-.113-3.397-.113-6.172.001-8.736.108-2.984.356-5.893.737-8.635.391-2.935.975-5.755 1.733-8.376.822-2.872 1.896-5.457 3.19-7.682 1.475-2.543 3.222-4.55 5.19-5.961l1.22-.81.416-.237c.52-.297 1.094-.586 1.804-.909 1.371-.598 2.608-1.003 3.797-1.244a13.904 13.904 0 0 1 3.018-.343c1.6 0 3.066.302 4.355.897.557.239 1.066.564 1.537.876l.067.048c.462.359.938.728 1.38 1.221.803.826 1.538 1.9 2.158 3.16a19.574 19.574 0 0 1 1.412 3.792c.384 1.57.587 2.854.645 4.056.169 2.503-.124 5.226-.896 8.306-1.078 4.197-2.882 8.411-4.627 12.486-.546 1.274-1.11 2.591-1.647 3.897a94.121 94.121 0 0 0-1.611 4.134 52.678 52.678 0 0 0-1.355 4.213c-.13.45-.245.892-.355 1.335l-.055.164c-.661 1.553-1.115 2.821-1.429 3.992l-.2.746-.77.064a57.22 57.22 0 0 0-5.294.685l-1.421.253.135-1.437c.595-6.327 1.917-10.675 3.317-15.278 2.654-8.728 1.118-12.13.335-13.187-.56-.755-1.28-1.138-2.14-1.138-1.798 0-4.122 1.738-5.082 5.059-2.41 8.345-1.579 19.12-.135 25.813l.214.991-.971.292a45.82 45.82 0 0 0-5.728 2.148l-.343.155.959 4.253c5.952-2.942 12.945-4.468 20.796-4.536l.216-.002.201.08c9.53 3.804 18.824 12.14 23.442 20.947-.242-5.34-.832-11.123-2.958-14.946l-1.696-3.049zm9.022-2.6a45.512 45.512 0 0 1 2.85 1.82c2.63-2.574 5.957-4.969 10.385-7.483.98-.56 1.965-1.106 2.945-1.649 3.67-2.034 7.135-3.956 9.996-6.39 1.851-1.585 3.36-3.304 4.482-5.105l.026-.041c.114-.165.221-.356.335-.558l.07-.123c.053-.095.114-.198.174-.3.081-.137.163-.274.234-.417.061-.123.127-.252.192-.38.192-.378.374-.735.477-1.04l.021-.061.304-.757c.042-.095.068-.207.096-.325.028-.119.056-.238.092-.355l.175-.658c.03-.246.06-.49.096-.733.157-.918.077-1.845-.022-2.72-.195-.854-.425-1.75-.85-2.522l-.037-.074c-.372-.815-.966-1.55-1.508-2.166-.134-.12-.263-.247-.391-.374-.205-.203-.383-.379-.564-.497l-.07-.049-.544-.417c-.2-.115-.397-.235-.593-.355l-.329-.204c-.03-.017-.064-.03-.096-.043a5.303 5.303 0 0 1-.167-.075l-.678-.314a2.861 2.861 0 0 0-.292-.098 7.4 7.4 0 0 1-.295-.094 4.852 4.852 0 0 1-.312-.105c-.07-.025-.166-.06-.2-.065l-.053-.007c-.193-.031-.378-.07-.565-.11-.296-.063-.552-.118-.825-.126l-.067-.004-.812-.074a3.911 3.911 0 0 0-.154-.002l-.432.005-.162-.003c-2.053 0-4.104.415-6.103 1.232-1.99.779-3.999 1.9-5.987 3.338-1.846 1.314-3.694 2.897-5.5 4.712-3.263 3.247-6.403 7.198-9.335 11.746-2.203 3.47-3.94 6.702-5.28 9.84.596.197 1.19.405 1.777.623 3.143-5.99 8.579-13.668 14.971-18.24 1.688-1.207 3.623-1.871 5.45-1.871 2.56 0 4.549 1.276 5.192 3.33.525 1.677.745 6.27-8.52 12.703-3.187 2.212-6.212 4.312-9.597 7.634zm-39.39-53.269-1.096.731c-1.68 1.206-3.218 2.982-4.537 5.256-1.204 2.069-2.206 4.486-2.979 7.186-.728 2.52-1.289 5.231-1.666 8.064a83.344 83.344 0 0 0-.72 8.427c-.111 2.515-.111 5.236 0 8.572.047 1.342.127 2.745.244 4.287.108 1.481.243 2.92.4 4.28a93.64 93.64 0 0 0 .499 3.595c1.22-.51 2.47-.972 3.74-1.383-1.429-7.247-2.034-17.558.375-25.902 1.13-3.913 4.089-6.646 7.194-6.646 1.549 0 2.935.72 3.904 2.027 1.49 2.01 2.699 6.266.002 15.135-1.258 4.136-2.452 8.062-3.081 13.422a59.743 59.743 0 0 1 3.302-.407c.316-1.04.732-2.161 1.283-3.46.11-.44.225-.877.35-1.312.39-1.425.864-2.899 1.405-4.369a96.37 96.37 0 0 1 1.645-4.222c.543-1.32 1.11-2.644 1.659-3.924 1.791-4.183 3.483-8.134 4.517-12.162.714-2.848.987-5.348.833-7.64-.053-1.079-.237-2.23-.582-3.643a17.317 17.317 0 0 0-1.249-3.351c-.523-1.064-1.126-1.95-1.797-2.642-.331-.367-.7-.655-1.089-.958-.376-.249-.777-.504-1.182-.677-1.027-.474-2.182-.708-3.462-.708-.825 0-1.687.1-2.56.295-1.056.214-2.149.573-3.361 1.103-.632.287-1.149.547-1.61.81l-.38.216zm35.802 23.572c-.902.9-1.745 1.83-2.487 2.76a32.863 32.863 0 0 0-4.993 8.702c1.866-3.63 4.383-7.711 7.48-11.462zM31.008 219.403l-6.1-1.48c-1.915-.466-7.405-2.935-9.78-8.701-1.717-4.167-1.18-10.636.007-12.798l1.975-3.598.087 4.103c.185 8.726 6.513 17.644 8.577 19.009l5.234 3.465zm-14.72-15.133c.106 1.456.374 2.909.871 4.115.783 1.9 1.978 3.385 3.235 4.513-1.53-2.36-3.066-5.36-4.106-8.628zm24.367-14.65-5.884-.898c-2.083-.318-8.189-2.528-11.39-8.849-2.304-4.548-2.525-11.954-1.544-14.537l1.565-4.123.552 4.376c1.273 10.11 9.148 19.74 11.525 21.091l5.176 2.94zm-16.867-16.127c.293 1.954.802 3.906 1.552 5.387 1.222 2.411 2.943 4.138 4.628 5.337-2.165-2.744-4.519-6.505-6.18-10.724zm28.254-10.121-6.098-.883c-2.312-.335-9.75-2.898-13.483-10.037-2.711-5.185-2.885-13.623-1.675-16.564l1.599-3.887.507 4.172c1.414 11.62 10.86 22.705 13.733 24.262l5.417 2.937zm-19.658-19.947c.243 2.81.893 5.845 2.024 8.008 1.723 3.294 4.316 5.486 6.691 6.872-3.062-3.52-6.603-8.866-8.715-14.88zm30.931-10.798-6.1-.884c-2.312-.335-9.75-2.898-13.483-10.037-2.712-5.185-2.886-13.623-1.675-16.564l1.599-3.886.507 4.172c1.413 11.62 10.859 22.705 13.732 24.262l5.42 2.937zm-19.66-19.948c.243 2.81.892 5.845 2.024 8.009 1.722 3.293 4.314 5.485 6.69 6.87-3.062-3.52-6.602-8.865-8.715-14.88zm31.12-9.163-6.21-1.418c-2.6-.593-10.814-4.121-14.328-12.27-2.561-5.936-1.87-15.17-.172-18.26l1.939-3.528.122 4.023c.42 13.793 10.675 26.387 13.272 28.037l5.378 3.416zm-19.994-24.86c-.164 3.41.225 7.41 1.473 10.303 1.82 4.217 5.027 7.052 7.86 8.798-3.386-4.282-7.558-11.242-9.333-19.101zm36.467-.227-6.908-3.592c-4.214-2.191-9.74-8.76-11.917-18.004-1.527-6.487.004-16.73 2.282-20.254l2.475-3.83-.46 4.537c-1.506 14.868 6.039 33.077 8.883 35.78l5.645 5.363zM74.434 44.904c-.56 3.706-.67 8.032.128 11.425 1.234 5.238 3.555 9.366 5.908 12.247-1.049-2.329-2.092-5.08-2.976-7.926-1.288-4.145-2.658-9.75-3.06-15.746zm38.679 15.234-6.061-4.892c-3.696-2.982-7.81-10.516-8.113-20.008-.211-6.66 3.319-16.397 6.25-19.4l3.185-3.263-1.35 4.356c-4.422 14.274-.635 33.617 1.617 36.83l4.472 6.377zm-9.839-36.193c-1.284 3.52-2.25 7.74-2.139 11.223.172 5.378 1.63 9.884 3.364 13.174-.566-2.49-1.043-5.393-1.346-8.357-.441-4.319-.674-10.084.121-16.04zM218.758 106.605l-.052-.126.052.126zM213.75 99.265zM204.372 129.43l-.055.005.055-.005zM212.721 127.132a28.896 28.896 0 0 1 0 0zM199.978 131.643a27.043 27.043 0 0 0 3.479-.438c-1.363.252-2.55.378-3.479.438zM199.407 131.675l.148-.008-.148.008zM213.228 100.15a11.108 11.108 0 0 0-.434-.325c.147.105.29.216.434.326zM214.325 99.813c-.062-.062-.12-.126-.181-.187-.029-.027-.059-.052-.087-.08.092.088.178.178.268.267zM215.656 125.524c-.189.126-.382.244-.575.362.372-.224.575-.362.575-.362z"/><path style="fill:#100f12" d="M190.23 96.517s-12.378 6.481-8.62 22.078c0 0 1.888 12.454 17.105 12.597 0 0 9.556.578 18.027-5.865 0 0 2.821-1.373 4.19-6.646 0 0-.99 4.354-4.398 6.353 0 0-3.224 2.2-7.582 3.262 0 0-9.009 2.526-16.205-1.429 0 0-7.196-2.691-7.086-12.14 0 0-1.396-9.068 6.25-14.614 0 0 11.12-7.65 21.606-.885 0 0 7.015 4.504 7.9 14.478 0 0-.42-13.32-11.936-18.235 0 0-4.954-2.43-13.041-1.118 0 0-4.838 1.283-6.21 2.164zM106.43 229.909c-2.06 0-3.86 1.364-5.171 2.778-.195-2.213-.931-4.265-2.122-5.716-1.503-1.83-3.643-2.667-6.114-2.381-1.772.206-3.276 1.304-4.348 3.176-2.561 4.47-2.48 13.022.18 19.065 1.631 3.705 4.792 7.664 8.77 7.664 3.331 0 6.27-2.659 8.732-7.903.88-1.873 1.819-3.533 2.646-4.996 2.24-3.963 4.01-7.093 1.475-9.742-1.236-1.29-2.598-1.945-4.047-1.945zm.66 10.606c-.847 1.497-1.806 3.195-2.722 5.144-2.04 4.343-4.372 6.639-6.743 6.639-2.407 0-5.06-2.494-6.76-6.353-2.372-5.39-2.503-13.214-.284-17.087.722-1.26 1.629-1.962 2.695-2.085.235-.028.468-.041.691-.041 1.414 0 2.582.55 3.472 1.633 1.44 1.756 2.026 4.858 1.458 7.719l-1.41 7.09 3.452-6.351c.713-1.312 3.09-4.717 5.492-4.717.838 0 1.643.415 2.46 1.268 1.346 1.406.365 3.31-1.8 7.14z"/><path style="fill:#100f12" d="M291.9 172.343c-10.777-20.494-26.037-27.48-42.193-34.876-7.563-3.461-22.433-12.445-27.65-15.634 0 0-.235 1.118-1.886 3.527.333-.44.624-.863.87-1.27 9.372 6.963 18.71 11.237 27.752 15.375 15.805 7.236 30.734 14.07 41.163 33.9 8.923 16.971 11.054 36.242 6 54.264-5.271 18.802-17.616 34.68-35.698 45.917-4.592 2.852-28.961 17.077-57.826 17.08-15.785 0-30.172-4.312-42.762-12.816a35.437 35.437 0 0 0-1.027-.645c-1.7-1.047-4.863-2.994-6.961-5.044l-.117-.114-.144-.076a2.104 2.104 0 0 1-.617-.477c-8.397-9.527-17.61-23.615-25.278-38.652l-.458-.897-.933.378c-5.355 2.165-9.898 9.56-14.291 16.712-3.417 5.563-6.951 11.316-9.875 12.341-1.263.444-2.487.669-3.638.669-6.245 0-9.631-6.484-11.373-11.924-3.443-10.757-3.461-26.79-.047-41.841 3.88-17.102 11.413-30.371 21.216-37.363l.475-.338-.015-.584a76.358 76.358 0 0 1-.025-2.224l.009-2.037-1.707 1.112a31.889 31.889 0 0 0-2.525 1.85c-.654.464-2.344 1.797-3.524 2.815a13.712 13.712 0 0 1 1.81-3.966c1.63-2.476 3.59-4.092 5.99-4.941.233-.055.463-.116.693-.177.523-.138 1.018-.27 1.48-.3l.425-.017c.264-.011.527-.023.79-.023.447 0 .788.034 1.105.111l.114.021c1.35.178 2.786.855 4.046 1.907 1.217 1.118 2.044 2.475 2.41 3.946-1.202-1.192-2.428-2.077-3.668-2.643a8.09 8.09 0 0 0-2.267-.615l-1.945-.225.821 1.777c.135.293.202.6.198.915-.391 33.16 23.528 77.505 40.637 98.402l.09.096c14.23 13.672 31.403 20.604 51.048 20.603h.005c27.593-.001 51.002-13.67 55.415-16.411 34.026-21.145 45.876-60.923 28.176-94.584-9.752-18.547-23.383-24.787-39.175-32.015-9.229-4.225-18.761-8.592-28.465-15.794a52.66 52.66 0 0 1-1.408 1.685c9.92 7.382 19.594 11.82 28.967 16.111 15.418 7.057 28.733 13.152 38.136 31.036 17.149 32.612 5.63 71.175-27.39 91.694-4.324 2.686-27.26 16.08-54.256 16.081h-.005c-19.034 0-35.682-6.711-49.479-19.945-16.88-20.641-40.44-64.272-40.1-96.846l.11.045c1.07.488 2.175 1.32 3.284 2.473.393.41.917.634 1.474.634.616 0 1.22-.283 1.616-.76a2.048 2.048 0 0 0 .434-1.69c-.393-2.115-1.499-4.055-3.198-5.608l-.035-.032c-1.11-.93-2.896-2.097-5.132-2.408a6.843 6.843 0 0 0-1.562-.158c-.295 0-.589.012-.884.024l-.439.018c-.713.047-1.335.212-1.937.371-.225.06-.45.12-.679.173l-.118.033c-2.897 1.008-5.239 2.914-7.151 5.82-1.199 1.787-2.02 3.828-2.44 6.066-.113.6.025 1.191.38 1.62.516.622 1.447.775 2.145.372-17.804 18.99-22.289 56.805-16.015 76.404 2.776 8.674 7.558 13.451 13.465 13.451 1.4 0 2.868-.267 4.366-.792 3.66-1.284 7.07-6.836 11.02-13.265 3.752-6.11 7.974-12.982 12.34-15.393 7.649 14.835 16.763 28.698 25.099 38.155.313.355.683.654 1.101.893 2.268 2.179 5.49 4.162 7.234 5.236.42.258.749.46.949.595 12.96 8.754 27.761 13.192 43.992 13.192 29.461-.002 54.304-14.503 58.985-17.41 18.558-11.533 31.233-27.85 36.656-47.191 5.205-18.564 3.013-38.41-6.172-55.879z"/><path style="fill:#100f12" d="M290.928 172.855c-10.603-20.163-25.697-27.073-41.678-34.388-9.042-4.14-18.383-8.423-27.717-15.388l.008.014s-2.203 4.177-3.686 5.293c9.812 7.29 19.414 11.693 28.71 15.949 15.6 7.14 29.073 13.308 38.65 31.523 17.425 33.137 5.74 72.308-27.783 93.14-6.293 3.908-62.533 36.874-105.128-4.052-17.941-21.913-40.766-65.739-40.388-97.692a3.207 3.207 0 0 0-.3-1.388 7.032 7.032 0 0 1 1.963.534c1.225.559 2.442 1.486 3.62 2.71.662.69 1.827.088 1.652-.852-.33-1.774-1.273-3.55-2.86-5-1.244-1.043-2.863-1.936-4.626-2.168-.882-.213-1.74-.13-2.612-.102-.863.057-1.631.334-2.445.519-3.088 1.075-5.148 3.19-6.6 5.394-1.167 1.74-1.896 3.654-2.273 5.657-.153.816.6 1.234 1.112.658.59-.664 3.504-3.013 4.453-3.683a31.243 31.243 0 0 1 2.463-1.806c-.003.75.007 1.501.026 2.256-31.64 22.567-31.148 101.516-5.156 92.39 7.026-2.464 14.77-25.253 24.214-29.072 7.677 15.056 16.878 29.174 25.433 38.88.271.308.59.547.934.726 2.734 2.671 7.1 5.11 8.14 5.813 14.283 9.648 29.335 13.005 43.378 13.004 29.317-.002 54.215-14.643 58.405-17.244 18.32-11.385 30.83-27.483 36.177-46.554 5.13-18.293 2.968-37.851-6.086-55.071zm-185.565 73.27c-5.584 11.889-12.468 7.155-15.503.263-3.333-7.57-2.48-20.038 3.29-20.707 5.727-.664 7.814 5.636 6.824 10.617 0 0 4.793-8.82 9.71-3.684 2.736 2.857-1.109 6.672-4.321 13.511z"/></svg>