<svg version="1.1" x="0px" y="0px" width="1000px" height="222px" style="enable-background:new 0 0 1254 222;" xmlns="http://www.w3.org/2000/svg">
  <g id="Layer_1">
    <polygon style="fill:#131214;" points="5.9 156.4 62.6 75.6 8.2 75.6 8.2 52.4 96.8 52.4 96.8 72.4 39.6 153.2 96.8 153.2 96.8 176.4 5.9 176.4"/>
    <path style="fill:#131214;" d="M 176.9 92.4 L 176.9 101.8 C 171.1 93.7 160.3 90.6 152.4 90.6 C 141 90.6 131.1 94.7 122.5 102.8 C 113.8 110.9 109.5 121.3 109.5 134.3 C 109.5 147.3 113.9 157.9 122.5 166 C 131.2 174.1 141.1 178.1 152.4 178.1 C 156.3 178.1 160.8 177.2 165.7 175.2 C 170.8 173.2 174.6 170.5 176.9 166.9 L 176.9 176.4 L 176.9 176.5 L 201.7 176.5 L 201.7 92.4 L 176.9 92.4 Z M 156.6 154.3 C 151 154.3 146.1 152.5 141.8 148.7 C 137.7 144.9 135.5 140.1 135.5 134.3 C 135.5 128.6 137.7 123.9 141.8 120.1 C 146.2 116.3 151 114.3 156.6 114.3 C 167.4 114.3 176.9 122.2 176.9 134.3 C 176.9 146.3 167.4 154.2 156.6 154.3 Z"/>
    <path style="fill:#131214;" d="M 249.8 176.4 L 224.8 176.4 L 224.8 92.3 L 249.8 92.3 L 249.8 112.6 C 253.9 98 264 90.5 273.6 90.5 C 279.2 90.5 283.9 91.6 288 93.6 L 283.5 116.1 C 280.1 114.5 275.8 113.6 270.7 113.6 C 256.8 113.6 249.8 124.8 249.8 147.1 L 249.8 176.4 L 249.8 176.4 Z"/>
    <rect x="301" y="46.6" style="fill:#131214;" width="25" height="129.8"/>
    <path style="fill:#131214;" d="M 411.3 92.4 L 411.3 101.8 C 405.5 93.7 394.7 90.6 386.8 90.6 C 375.4 90.6 365.6 94.7 356.9 102.8 C 348.2 110.9 343.9 121.3 343.9 134.3 C 343.9 147.3 348.3 157.9 356.9 166 C 365.6 174.1 375.5 178.1 386.8 178.1 C 390.7 178.1 395.2 177.2 400.1 175.2 C 405.2 173.2 409 170.5 411.3 166.9 L 411.3 176.4 L 411.3 176.5 L 436.1 176.5 L 436.1 92.4 L 411.3 92.4 Z M 391 154.3 C 385.4 154.3 380.5 152.5 376.2 148.7 C 372.1 144.9 369.9 140.1 369.9 134.3 C 369.9 128.6 372.1 123.9 376.2 120.1 C 380.6 116.3 385.4 114.3 391 114.3 C 401.8 114.3 411.3 122.2 411.3 134.3 C 411.3 146.3 401.8 154.2 391 154.3 Z"/>
  </g>
</svg>