<svg xmlns="http://www.w3.org/2000/svg" viewBox="0 0 20 19.2" style="enable-background:new 0 0 20 19.2" xml:space="preserve"><path fill="#6658F5" d="M15.9 12c-.3.3-.4.6-.3 1l.9 4.9c.1.4-.1.8-.5 1.1-.3.3-.8.3-1.2.1l-4.4-2.3c-.2-.1-.3-.1-.5-.1h-.2c-.1 0-.2.1-.3.1L5 19.1c-.2.1-.5.1-.7.1-.6-.1-1-.7-.9-1.3l.9-4.9c.1-.4-.1-.7-.3-1L.3 8.5C0 8.2-.1 7.8.1 7.4c.1-.4.5-.7.9-.8l5-.7c.4 0 .7-.3.9-.6L9 .8c0-.1.1-.2.2-.3h.1c0-.1.1-.1.2-.1h.1l.2-.1h.4c.3 0 .7.2.8.5l2.2 4.5c.2.3.5.5.8.6l5 .7c.4.1.8.3.9.8.1.4 0 .8-.3 1.1L15.9 12z"/></svg>