<svg version="1" xmlns="http://www.w3.org/2000/svg" width="816" height="816" viewBox="0 0 612.000000 612.000000"><path d="M270.4 2.5c-12.9 4-24.2 13.1-30.3 24.4l-3.2 6.2-3.5-5.3c-4.9-7.4-9.4-10.1-16.9-10.4-6.9-.2-12.2 1.6-18 6-5.1 3.9-6 5-9.4 11.6-4.3 8.4-6.1 17.4-6.6 32.9-.1 4.2-.3 7.8-.4 8 0 .2-1.1-.9-2.3-2.5-7.1-9.4-16.9-16.1-24.3-16.6-4.5-.2-10.4.9-12.2 2.4-.7.6-1.3.7-1.3.2 0-.4-1.6.8-3.6 2.7-11.2 10.8-13.8 31.9-6.7 55.9 1.4 4.7 2.8 9.3 3.1 10.4.3 1 1.3 3.5 2.3 5.5 1.6 3.3 1.7 5.9.1 3.5-.4-.6-3.9-2.7-7.9-4.6-18-8.6-33.7-2.1-37.8 15.6-2.7 11.8 2.1 29.1 12.8 45.8 3.9 5.9 4.6 7.7 2.4 6.1-1.9-1.6-8-3.3-12.8-3.7-19.8-1.5-30.4 20.5-21 43.9 1.9 5 4.6 10 5.4 10.3.4.2.7.9.7 1.7 0 .7.7 1.8 1.5 2.5 2.7 2.2 1.6 2.8-2.7 1.6-8-2.3-14.1-.9-20.3 4.5-7.5 6.6-10.7 17.6-8.3 28.9.6 3 1.2 5.7 1.2 6 .2 1.6 9.3 18.4 10.9 20.1 2.5 2.7 1.6 3.3-2.4 1.6-8.2-3.3-18.8-.2-24 7.1-7.2 10-6.5 24.8 2 40.2 5.1 9.4 4.8 8.9 8.6 13.6 2.6 3.3 3.2 5 1.5 3.9-3.1-1.9-13.1-2.5-18-1.1-1.9.6-5.4 2.9-7.7 5.2-7.4 7.5-8.2 20.5-2.1 34.4 1.8 4.1 7.5 13.8 8.8 15 .3.3 2.3 2.7 4.5 5.5 2.2 2.7 6.8 7.8 10.2 11.3 3.7 3.8 6 6.9 5.6 7.6-.4.6-.9 1.5-1 2.1-.1.5-1.1 4.2-2.2 8.1-1.1 3.9-2.2 8.7-2.5 10.6-.3 1.9-.8 4.1-1 4.9-.3.8-.7 3-1 4.9-.3 1.9-.8 4.6-1.1 6-1.9 9-2.3 19.3-1.1 27.3 4.7 31.9 44.1 60.4 105.1 75.9 6.6 1.6 12.9 3.2 14 3.4 1.1.2 3.1.6 4.5.9 1.4.2 3.9.7 5.5 1 1.7.3 4.1.7 5.5.9 1.4.3 4.5.7 7 1 2.5.3 5.5.8 6.7 1 10 2 58.7 2.9 69.6 1.3 2.6-.4 6.6-.9 9-1.2 2.3-.3 5.3-.7 6.7-1 1.4-.3 3.9-.8 5.5-1 29.9-5.3 41.8-15.7 41.9-36.7l.1-7.7 3.5 2.1c16.4 9.8 36.5 17.3 54.5 20.2 13 2.1 35.1 2.8 45.5 1.4 3-.3 7.5-.9 10.1-1.2 2.5-.3 5.2-.7 6-1 .7-.3 3.1-.7 5.1-1 5.2-.8 17.8-4.2 28.3-7.8 5-1.7 9.6-3.1 10.3-3.1.6 0 1.2-.4 1.2-.8s1.2-1 2.7-1.3c8.4-2.2 36.3-17.2 48.3-26 9.1-6.8 10.1-7.7 21.5-19.1 21.6-21.5 35.3-46.6 42.1-77 3.7-16.9 3.8-43.8.1-60-.4-1.7-.9-3.9-1.1-5.1-.6-3.2-2.7-10.7-3.6-12.9-.5-1.1-1.8-4.6-2.9-7.7-5.5-15.5-18.1-35.4-29.9-47.3-14.6-14.7-27.4-22.7-64.7-40.1-6.6-3-41-22.6-48.7-27.7-1.4-.9-2.9-1.7-3.2-1.7-.3 0-1.5 1.8-2.6 3.9-1.1 2.2-3.1 5.2-4.5 6.7s-2.5 3.2-2.5 3.8c.1 1.6 17 12.3 31.6 19.9 7.7 4.1 28.6 14.1 29.4 14.2 2.1.1 26.4 13.1 34.5 18.3 9 6 27.5 22.9 27.5 25.2 0 .5.6 1.5 1.3 2.2 1.3 1.3 10.7 16.5 10.7 17.3 0 .2 1.1 2.8 2.5 5.7 19.1 41.1 14.6 90.5-12.1 130.3-7.4 11-16 20.6-27.4 30.5-10.6 9-36.3 25-40.4 25-.7 0-1.9.7-2.6 1.5-.7.8-1.9 1.5-2.6 1.5-.7 0-3.7 1.1-6.6 2.4-14.9 6.7-41.7 13.5-59.8 15.1-6.9.6-27.6.6-31 0-1.4-.2-4.3-.6-6.5-.9-3.5-.4-7.5-1.2-11-2-.5-.2-2.8-.6-5-1.1-2.2-.4-5.2-1.4-6.7-2.2-1.5-.7-3-1.3-3.3-1.2-1.5.3-15.4-6.1-25-11.5-6.2-3.5-20.7-14.7-25.2-19.3-8.2-8.6-24.3-32.5-37.2-55.3-3.5-6.1-19.1-37.6-19.1-38.4 0-.3-1.1-2.9-2.4-5.8-4-8.7-13.8-36.8-12.9-36.8.3 0 .1-.6-.5-1.2-.5-.7-1.2-2.7-1.5-4.5-.3-1.8-1-4.7-1.6-6.5-.9-2.8-2.4-10.5-4.6-23.3-.2-1.7-.7-7.4-1-12.8-.6-9.8-.6-9.8 1.5-8.7 1.2.6 3 2 4.1 3.1 2.7 2.7 5.7 2.4 7.1-.6.9-2 .8-3.3-.7-6.4-6.2-13.9-24.2-16.4-36.2-5.1-4.6 4.3-8.2 10.9-8.9 16.3-.6 4.2-.4 4.7 1.5 5.5l2.2.8-2.5 2.7c-6.6 7.1-18.9 28.7-21.2 37.2-.2.5-1.5 4.4-2.9 8.5-3.9 11.2-7.6 29.1-9.2 44-1.3 12-.5 41.3 1.2 46.3.2.6.7 2.3.9 3.7 2.6 13.7 7.3 23.3 14.7 30.1 5.6 5.2 11.5 7.1 18.4 5.7 2.2-.5 4.6-.9 5.3-1 3.1-.3 18.2-18.3 18.2-21.7 0-.5.3-1.1.8-1.3.4-.1 3.3-4.4 6.4-9.5 3.1-5 6.5-10.2 7.5-11.5 3.3-4.2 12-12.8 12.9-12.8.6 0 2.2 2.4 3.7 5.2 3.4 6.8 9.3 17.5 11.7 21.3 5.1 8 20.4 31.1 20.9 31.5.4.3 2.6 3.2 5.1 6.5 5.8 7.8 14.4 16.2 20.3 20l4.8 2.9-.6 5.4c-.9 8.7-3.1 12.4-9.8 16.6-4.1 2.5-22.4 8.1-30.4 9.1-1.1.2-3 .6-4.1.9-1.1.4-4.6.9-7.9 1.1-3.2.2-5.8.5-5.8.5 0 .6-10.9 1.2-25 1.3-18.6.1-35.3-.9-47-2.8-1.6-.2-4.8-.7-7-1-3.5-.5-25-4.9-29.7-6.1-1-.2-2.6-.6-3.5-.8-1-.2-3.1-.9-4.8-1.6-1.6-.6-3.2-1.2-3.5-1.2-1-.1-2.5-.6-10.5-3.3C92.6 565.7 68 548.9 60 532.4c-3.8-7.9-4.3-10.1-4.5-21.5-.2-10.7 2.5-24.2 9.2-44.9 2-6.3 3.8-12 3.9-12.5.5-2.2 9.4-26.8 9.9-27.3.3-.3.6-.3.8-.1.1.2 1.9 2.9 3.8 5.9 5.8 8.8 13.2 16.2 16 15.8 3-.4 3.5-2.9 1.6-7.1-.8-1.8-2.7-6.1-4.2-9.7-1.5-3.6-3.3-7.9-4-9.6-2.8-6.6-5.6-18.5-4.9-20.7.5-1.2.9-2.4.9-2.7.1-.3.7-1.9 1.4-3.5.7-1.7 2.1-5.3 3.2-8 3-7.8 3.2-7.9 5.9-2.7 2.3 4.6 8.4 13 13.2 18.3 5.3 5.9 10.8 7.2 10.8 2.6 0-1.2-2-6.2-4.5-11.3-9.3-19.2-13.6-37.8-10.2-44.1.9-1.5 2.6-5.1 3.9-8 1.7-4 2.5-4.9 3.5-4.1.7.6 1.3 1.9 1.3 2.9 0 1.1.4 1.9.8 1.9s1.3 1.4 1.9 3c1.9 5 13.4 21.7 15.9 23 1.2.7 3 1 3.9.6 2.2-.8 1.8-3.3-2.8-20.1-4.3-15.5-4.4-15.9-6.7-30.3l-1.7-11.2 4.6-9.5c2.5-5.2 4.8-9.4 5.1-9.4.3 0 2.6 4.4 5.3 9.7 5.1 10.5 13.9 23.2 16 23.2.7 0 2.1-.6 3.1-1.3 2.1-1.5 2-2-3.2-21.5-1.7-6.1-2.9-11.2-2.6-11.2.2 0-.1-1.2-.6-2.6-.6-1.5-1.2-4.1-1.4-5.8-.3-1.7-.7-4.3-1.1-5.6-1.3-5.5-1.3-12.6-.1-14.5.7-1.1 3-5.2 5.1-9 5.6-10.3 5.5-10.2 7.7-5.3 2.8 6.2 12.6 20.7 17 25.2 3.6 3.6 4 3.7 6.1 2.3 2.1-1.4 2.9-4.2 1.6-6.2-.6-.9-1.4-3.5-5.5-17.5-1.4-4.7-3.3-12-3.4-13.2-.1-.4-.6-2.2-1.1-4-.5-1.8-1.2-4.9-1.5-6.8-.3-1.9-.7-4.3-1-5.3-.5-1.4 2.6-8 4.6-9.7.3-.3 2.2-3.1 4.3-6.3 2-3.1 4.1-5.7 4.6-5.7s1.4 1.4 2.2 3.2c.7 1.7 3.4 6.3 5.9 10.2 9.4 14.3 14.5 18.3 17 13.6.7-1.2.9-3.4.5-4.8-.4-1.5-.6-2.7-.4-2.7.1 0-.3-.9-.9-2.1-.6-1.1-1.3-3.2-1.6-4.5-.5-2.8-1.8-8.6-3.9-18-.9-3.6-1.8-8.9-2.2-11.8-.6-5-.5-5.4 3.5-10.6 5.8-7.5 13.8-14.7 22.5-20.1 15-9.5 30.1-14.7 46.2-16 8-.7 8.2-.6 15 3.1 15.3 8.4 29.1 21.8 36.9 36 1.6 2.9 5.5 4.7 7.2 3.2 2-1.6.8-20-1.8-28-1.1-3.3-.7-3.3 3.3-.5 9.4 6.7 16.6 15 22.5 25.8 5.7 10.6 9 16.5 11.1 20.2 2.2 3.7 2.2 3.7.2 4.7-3.3 1.8-9.9 11.9-11.6 17.8-5.8 19.9 3.2 39.7 20.6 45.3 6.7 2.2 18.6 3 24.5 1.7 6.5-1.5 13.2-4 18.5-6.9 7.6-4.2 7.7-5.4.2-1.8-13.9 6.7-30.5 6.8-42.5.3-8.8-4.8-13-12.6-13.3-24.8-.4-14.3 5-24.3 16.2-30.2 7.7-4.1 15.1-5.7 23.2-5.1 10.9.8 19.1 5.7 25.3 15.1 3.3 4.9 3.8 4 .6-1.2-7.6-12.9-19.5-19.2-35.3-18.8l-8.2.2-3.8-5.8c-4.9-7.7-5.3-9.5-2.4-10.2 5.1-1.3 11.6-1.2 16.6.3 6.5 1.8 9.7 1.1 11.3-2.7 1.9-4.8.5-8.4-4.3-11.2-5.8-3.2-21.4-3.8-28.6-1-4.7 1.9-4.8 1.9-6.2-.1-4.1-6-9.8-12.8-14.2-17l-5-4.8 2.4-2c1.3-1 2.8-1.9 3.2-2 .5 0 3.2-1.1 6-2.4 2.9-1.3 9.8-4.2 15.5-6.5 18.2-7.3 27.6-13.6 35.2-23.7 2.2-2.9 4-5.6 4-5.9 0-.3 1-2.7 2.2-5.3 3.4-7.1 3.1-18.6-.7-26.6-3.8-7.9-10.9-14.7-18.7-17.9-8.2-3.3-21.1-3.2-30.3.2-3.3 1.2-6.7 2.4-7.5 2.7-1 .3-2.1-1-3.4-3.8-2.6-5.7-10.5-13.2-16-15.3-6.4-2.5-15.4-1.6-23.1 2.1-3.3 1.6-6.6 3.5-7.4 4.2-1.7 1.6-3.1.1-3.1-3.5 0-3.5-3.8-12.7-7.1-17.2-2.7-3.8-10.7-10.4-13-10.7-.5-.1-1-.2-1.1-.4-2.3-1.7-18.1-2.1-23.4-.5zm16.5 16.1c3 .6 11.7 8.1 10.6 9.2-.3.3 0 1.1.6 1.8.5.7 1.3 2.5 1.7 4.1.8 3.4.8 19 0 21.8-.3 1.1-.9 3.3-1.3 5-.4 1.6-4 11.1-8.1 21-4 9.9-8.3 21.1-9.4 25-2.6 8.9-3 9.5-6.7 9.9-2.9.4-3.1.2-2.8-2.2.2-1.5.4-2.7.5-2.7.1 0 .4-1.4.6-3 .3-1.7 1.4-6.4 2.5-10.5 2.9-10.4 2.7-9.8 4.2-16.5 4-18.1-3.9-30.3-15.5-24.1-5.2 2.8-8.3 8.5-10.4 19.1-.5 2.4-1.7 16.2-1.7 19 .1 3.7 1.2 16.9 1.8 21.1.6 3.9.5 4.2-2.5 5.4-3.8 1.6-4.9.5-5.1-5-.1-1.9-.3-4.6-.5-6-.7-4.6-.7-34.4-.1-39.8 1.6-12.5 3.8-22.3 5.8-27.2 6.5-15 11.3-20.1 22.3-24.1 5.5-2 8.6-2.3 13.5-1.3zm-80.8 36.1c-1.4 8.2.3 35.9 2.4 39.3.3.6.2 1-.3 1s-1.3-1-1.7-2.3c-1.3-4.3-2.6-9.2-3.2-12.2-1.1-5.1-.7-18.8.6-23 .7-2.2 1.4-4.6 1.6-5.3.9-2.6 1.2-1 .6 2.5zm191.2 5.4c2.6.6 4.7 1.5 4.7 2s.5.9 1.1.9c1.3 0 2.7 1.5 5.8 5.8 5.5 7.9 1.7 20.5-9.4 31.4-3.2 3.1-15.1 11.2-18.8 12.8-5.4 2.4-20.8 12.3-27.2 17.5-3 2.4-3 2.4-5.5.4l-2.5-1.9 3.5-3c1.9-1.7 7.3-5.8 12-9.3 11.2-8.1 13.6-10.3 17.3-15.6 3.2-4.6 4.3-11 2.6-14.3-1.3-2.4-6.1-4.8-9.7-4.8-8.9 0-22.7 11.8-34.4 29.6-2.6 3.9-5 7.8-5.4 8.7-.7 1.8-2.9 2.3-3.9.8-.6-1 5.4-13 10.2-20.3 13.8-21.2 33.1-38.1 46.3-40.5 1.3-.2 2.6-.6 2.8-.7.7-.7 6-.4 10.5.5zM333 77.4c0 .2-.8 1-1.7 1.7-1.6 1.3-1.7 1.2-.4-.4 1.3-1.6 2.1-2.1 2.1-1.3zm-3.6 5.1c-.4.8-1.1 1.5-1.6 1.5-.6 0-.5-.6.2-1.5.7-.8 1.4-1.5 1.6-1.5.2 0 .1.7-.2 1.5zM149.6 97.9c.6 4.5 1.1 7.3 1.4 8.1.1.3.2.9.1 1.3-.2 1.2 5.6 21.1 7.4 25.4 2.8 6.6-1 1.8-4.2-5.4-5.5-12.3-5.3-11.3-5.9-24.3-.5-10.5.1-13 1.2-5.1zm-38.3 66.6c.8 4.2 7 17.5 10.7 23 1.5 2.2 3.3 5.1 4 6.5 1.2 2.2.8 2.1-2.7-1-8-7-12.5-15.9-13.6-26.9-.5-5 .7-6.2 1.6-1.6zM90 233c.7 2.2 1.9 4.5 2.7 5.1.7.6 1.3 1.6 1.3 2.2 0 1.4 6.9 11.9 8.8 13.4.9.8 1.1 1.3.4 1.3-1.9 0-10.1-9.2-12.2-13.7-1.1-2.3-2.2-5.6-2.5-7.4-.3-1.8-.8-3.6-1.1-4.1-.3-.4-.1-.8.4-.8s1.5 1.8 2.2 4zm-13.9 76.5c5.3 7.5 5.6 8.2 2.1 5.3-7.1-5.9-11.3-13-12.6-21.3-.6-3.6-.3-3.2 3.1 3.5 2.1 4.2 5.4 9.8 7.4 12.5zM51 355.2c0 .6 1.3 2.9 2.8 5.2 4.6 6.8 4.7 6.9 2.5 5.6-2.3-1.5-5.6-6.4-7.1-10.9-1-2.9-1-3.2.3-2.1.8.7 1.5 1.7 1.5 2.2zm-14.1 64.4c1.6 3 2.3 5 1.5 4.3-1.4-1.2-5.4-8.1-5.4-9.4 0-1.5 1.1 0 3.9 5.1zm154.5 35.8c5.2 2.2 8.3 11.3 6.2 18.4-.3.9-.8 3.3-1.1 5.2-.3 1.9-.8 4.4-1.1 5.5-.6 2.1 1-.2 6.5-9.5 1.8-3.1 4.8-6.6 6.7-7.9 3-2.1 3.7-2.2 6.4-1.1 1.8.7 3.3 2.2 3.6 3.7.6 2.3-.1 4-10.7 24.2-4.1 7.7-9.8 12.4-13.8 11.4-6.6-1.6-12.9-10.6-15-21.3-1-5.3-.9-15.9.3-20.9 1.1-4.5 4.4-8.1 8.4-9 .1-.1 1.7.5 3.6 1.3z"/><path d="M295.3 161.1c-8.9 1.6-17.8 7.1-19.5 12-.3.8 0 2.9.8 4.7 1.6 3.9 4.9 4.3 8.4 1 5.6-5.3 18.7-6.9 27.1-3.4 3.4 1.4 3.8 1.4 5.8-.5 2.7-2.5 2.5-7.2-.4-9.8-4.3-3.8-13.6-5.5-22.2-4zM297.7 197.6c-.1.1-1.6.4-3.4.7-18.5 2.9-33.1 16.2-37 33.7-.2.8-.5 5.1-.7 9.5-1 28.1 14.6 45 42.6 46 16.1.5 36.1-6.4 43.8-15.2l2.5-2.8-3 2.7c-4 3.6-14.4 8.2-22.5 10-8.9 2-22.7 1.4-29.6-1.2-11.3-4.3-17.2-9.2-20.8-17.1-2.9-6.3-3.6-10-4-18.9-.9-26.1 18.7-43.2 48.9-42.6 7.5.1 9.9.6 14.5 2.9 6.8 3.3 13.3 9.5 17.2 16.4 4.2 7.4 4.6 6.6.6-1-3.9-7.4-12.8-16.5-18.9-19.4-6.3-3-14.7-4.5-22.9-4.1-3.9.1-7.2.3-7.3.4zM391.8 228.2c-3.3 1.2-3.5 1.9-.8 3.6 4.6 2.8 1 9-4.5 7.6-3-.8-3.1-.2-.4 5.2 1.5 3.2 2.9 4.6 5.5 5.4 3.6 1.2 9 .5 10.9-1.4 3.7-3.6 5.2-10.9 3.3-15.1-2.1-4.6-9-7.2-14-5.3z"/><path d="M292 243.7c-3.5 1.3-4.1 2.6-1.8 3.7 3.4 1.7 4.6 6 2.3 8.6-2 2.2-6.4 2.7-8.3.8-1.8-1.8-1.6 3.4.4 7.4 6.6 13.7 27.6 7.2 25.9-8-.6-5.5-1.7-7.5-5.9-10.7-3.2-2.4-8.7-3.2-12.6-1.8zM435.4 249.2l-1.9 2.3 2.3-1.9c2.1-1.8 2.7-2.6 1.9-2.6-.2 0-1.2 1-2.3 2.2zM465.7 293.6c-.1.1-2.4.5-5.2.8-4.5.6-12.4 1.9-18.3 3.1-10.5 2-37 12.1-48.2 18.2-10.6 5.9-28 17.6-28.8 19.5-.2.5-.8.8-1.4.8-1.8 0-26.1 25.2-31.9 33-5.7 7.7-13.9 20.5-13.9 21.6 0 .3-.9 1.9-2.1 3.5-1.1 1.6-1.8 2.9-1.4 2.9.3 0-.1 1.2-.9 2.7-2.8 5.2-8.6 20.1-10.2 26.8-.2.5-1 3.7-1.9 7-.8 3.3-1.8 7.6-2.1 9.5-.2 1.9-.7 4.6-1 6-1.8 8.8-2.5 31.5-1.2 41 1.7 12.6 5.2 23.9 10.5 33.8 5 9.4 5.7 9.7 2.3 1.1-5.2-13.5-6.8-24-6.5-41.2.3-14.1.7-18.3 2.1-24.7.3-1.4.8-3.9 1.1-5.5.8-5.6 7.4-26.9 11-35.5 5-12.4 16.8-33.8 20.3-37 .3-.3 1.9-2.3 3.5-4.5 7.7-10.4 18.8-21.9 30.5-31.7 15.2-12.8 30.6-22.4 49.2-30.7 7.3-3.3 28.7-10.7 33.1-11.5 1.5-.3 3.5-.7 4.5-1 2-.6 6.5-1.5 10.7-2.2 1.7-.3 8.4-.6 14.9-.8 10.7-.2 15.5.3 24.6 2.8 1.7.4 1.3 0-1.2-1.4-4-2.2-12.6-4.6-19.8-5.6-4-.6-21.8-1.2-22.3-.8zM495.5 341.5c-5.9 5.8-1 16.8 7.1 16 3.3-.3 5.2-1.7 7.3-5.5.4-.8.4-3.3-.1-5.5-1.5-7.1-9.5-9.9-14.3-5z"/><path d="M428.8 359.7c-3.1 3.6-3.8 5.9-2.8 9.5 1.4 4.8 4.3 7.2 8.8 7.1 11-.3 10.3-18.3-.8-18.3-2.3 0-4.3.7-5.2 1.7zM158.7 521.3c-.5 1.5 2.4 12.1 3.5 12.5.4.2.8.9.8 1.6 0 1.9 6.7 9.3 11.3 12.4 8.7 5.9 21.8 6.8 31.2 2.1 8.6-4.3 16.4-14.1 18.1-22.7.4-1.8.3-3.2-.2-3.2s-4.5 3.5-8.9 7.8c-8.7 8.3-14.4 11.2-22.2 11.2-8.8 0-18.7-6.1-26.4-16.2-4.5-6-6.5-7.5-7.2-5.5z"/></svg>